<?xml version="1.0" encoding="UTF-8" standalone="no"?>
<!-- Created with Inkscape (http://www.inkscape.org/) -->

<svg
   xmlns:dc="http://purl.org/dc/elements/1.1/"
   xmlns:cc="http://creativecommons.org/ns#"
   xmlns:rdf="http://www.w3.org/1999/02/22-rdf-syntax-ns#"
   xmlns:svg="http://www.w3.org/2000/svg"
   xmlns="http://www.w3.org/2000/svg"
   xmlns:sodipodi="http://sodipodi.sourceforge.net/DTD/sodipodi-0.dtd"
   xmlns:inkscape="http://www.inkscape.org/namespaces/inkscape"
   width="144.91678mm"
   height="34.364079mm"
   viewBox="0 0 144.91677 34.364078"
   version="1.1"
   id="svg8"
   inkscape:version="0.92.3 (2405546, 2018-03-11)"
   sodipodi:docname="fence_and_sections.svg">
  <sodipodi:namedview
     id="base"
     pagecolor="#ffffff"
     bordercolor="#666666"
     borderopacity="1.0"
     inkscape:pageopacity="0.0"
     inkscape:pageshadow="2"
     inkscape:zoom="1"
     inkscape:cx="266.91796"
     inkscape:cy="222.52686"
     inkscape:document-units="mm"
     inkscape:current-layer="layer2"
     showgrid="false"
     inkscape:window-width="1920"
     inkscape:window-height="1032"
     inkscape:window-x="0"
     inkscape:window-y="24"
     inkscape:window-maximized="1"
     showguides="true"
     inkscape:guide-bbox="true"
     fit-margin-top="0.1"
     fit-margin-bottom="0.1"
     fit-margin-right="0.1"
     fit-margin-left="0.1"
     showborder="false"
     inkscape:showpageshadow="false" />
  <defs
     id="defs2" />
  <metadata
     id="metadata5">
    <rdf:RDF>
      <cc:Work
         rdf:about="">
        <dc:format>image/svg+xml</dc:format>
        <dc:type
           rdf:resource="http://purl.org/dc/dcmitype/StillImage" />
        <dc:title></dc:title>
      </cc:Work>
    </rdf:RDF>
  </metadata>
  <g
     inkscape:groupmode="layer"
     id="layer2"
     inkscape:label="hintergrund"
     transform="translate(21.300665,8.8008255)"
     sodipodi:insensitive="true">
    <rect
       style="opacity:1;fill:#f9f9f9;fill-opacity:1;stroke:#ffffff;stroke-width:0.09999998;stroke-linecap:round;stroke-miterlimit:4;stroke-dasharray:none;stroke-dashoffset:0;stroke-opacity:1"
       id="rect4354"
       width="144.61678"
       height="34.064079"
       x="-21.150665"
       y="-8.6508255"
       ry="5.7891135" />
  </g>
  <g
     inkscape:label="Layer 1"
     inkscape:groupmode="layer"
     id="layer1"
     transform="translate(-12.492017,-71.707739)"
     sodipodi:insensitive="true">
    <path
       d="m 25.523254,91.628801 v -4.479088 h 1.278966 q 0.802487,0 1.172384,0.345029 0.369897,0.338754 0.369897,0.966078 0,0.370115 -0.156736,0.702595 -0.150466,0.332479 -0.507824,0.539504 -0.351089,0.200738 -0.959224,0.200738 h -0.633213 v 1.725144 z m 0.56425,-2.214452 h 0.570518 q 0.55171,0 0.827565,-0.213287 0.282125,-0.213299 0.282125,-0.708881 0,-0.464222 -0.250777,-0.658685 -0.244508,-0.194475 -0.764872,-0.194475 h -0.664559 z"
       style="font-style:normal;font-variant:normal;font-weight:normal;font-stretch:normal;font-size:4.93888903px;line-height:1.25;font-family:'Noto Sans Mono';-inkscape-font-specification:'Noto Sans Mono, Normal';font-variant-ligatures:normal;font-variant-caps:normal;font-variant-numeric:normal;font-feature-settings:normal;text-align:start;writing-mode:lr-tb;text-anchor:start;fill:#000000;fill-opacity:1;stroke:#333333;stroke-width:0.09999999;stroke-linecap:round;stroke-miterlimit:4;stroke-dasharray:none;stroke-dashoffset:0;stroke-opacity:1"
       id="path1656"
       inkscape:connector-curvature="0" />
    <path
       d="m 33.621773,93.255545 q -0.125391,0 -0.244508,-0.0188 -0.119121,-0.0127 -0.206891,-0.03137 v -0.432848 q 0.07524,0.0127 0.175544,0.02515 0.106579,0.0127 0.206891,0.0127 0.288394,0 0.44513,-0.144279 0.156736,-0.138016 0.282125,-0.457946 l 0.181813,-0.457947 -1.410623,-3.393817 h 0.55171 l 0.802489,1.976066 q 0.08149,0.194476 0.156735,0.432849 0.08151,0.238385 0.144198,0.457946 h 0.01881 q 0.0627,-0.23211 0.137929,-0.464208 0.07524,-0.232111 0.144196,-0.432861 l 0.658292,-1.969792 H 36.2424 l -1.410623,3.801579 q -0.119121,0.326205 -0.263316,0.570865 -0.137928,0.250922 -0.363628,0.388939 -0.21943,0.138016 -0.583057,0.138016 z"
       style="font-style:normal;font-variant:normal;font-weight:normal;font-stretch:normal;font-size:4.93888903px;line-height:1.25;font-family:'Noto Sans Mono';-inkscape-font-specification:'Noto Sans Mono, Normal';font-variant-ligatures:normal;font-variant-caps:normal;font-variant-numeric:normal;font-feature-settings:normal;text-align:start;writing-mode:lr-tb;text-anchor:start;fill:#000000;fill-opacity:1;stroke:#333333;stroke-width:0.09999999;stroke-linecap:round;stroke-miterlimit:4;stroke-dasharray:none;stroke-dashoffset:0;stroke-opacity:1"
       id="path1658"
       inkscape:connector-curvature="0" />
    <path
       d="m 42.826825,91.681881 q -0.357357,0 -0.645751,-0.09412 -0.282125,-0.09412 -0.44513,-0.33248 -0.163007,-0.238385 -0.163007,-0.658684 v -1.869423 h -0.915336 v -0.388939 l 0.915336,-0.100343 0.11285,-0.878246 h 0.451399 v 0.89707 h 1.310313 v 0.470496 h -1.310313 v 1.762779 q 0,0.382664 0.169275,0.558316 0.169275,0.175652 0.557981,0.175652 0.163005,0 0.351088,-0.03137 0.188083,-0.03137 0.326011,-0.06275 v 0.451672 q -0.150467,0.0376 -0.33228,0.06897 -0.181814,0.03137 -0.382436,0.03137 z"
       style="font-style:normal;font-variant:normal;font-weight:normal;font-stretch:normal;font-size:4.93888903px;line-height:1.25;font-family:'Noto Sans Mono';-inkscape-font-specification:'Noto Sans Mono, Normal';font-variant-ligatures:normal;font-variant-caps:normal;font-variant-numeric:normal;font-feature-settings:normal;text-align:start;writing-mode:lr-tb;text-anchor:start;fill:#000000;fill-opacity:1;stroke:#333333;stroke-width:0.09999999;stroke-linecap:round;stroke-miterlimit:4;stroke-dasharray:none;stroke-dashoffset:0;stroke-opacity:1"
       id="path1660"
       inkscape:connector-curvature="0" />
    <path
       d="m 49.421328,91.681856 v -4.767658 h 0.564249 v 1.355017 q 0,0.119142 -0.01257,0.301107 -0.0062,0.181926 -0.01257,0.288569 h 0.03134 q 0.156735,-0.313655 0.432592,-0.457946 0.275855,-0.144279 0.620674,-0.144279 0.520362,0 0.840104,0.294844 0.32601,0.28857 0.32601,0.934705 v 2.195641 h -0.564249 v -2.082722 q 0,-0.457947 -0.194353,-0.671234 -0.194352,-0.213287 -0.55171,-0.213287 -0.420052,0 -0.67083,0.326205 -0.244508,0.31993 -0.244508,0.89707 v 1.743968 z"
       style="font-style:normal;font-variant:normal;font-weight:normal;font-stretch:normal;font-size:4.93888903px;line-height:1.25;font-family:'Noto Sans Mono';-inkscape-font-specification:'Noto Sans Mono, Normal';font-variant-ligatures:normal;font-variant-caps:normal;font-variant-numeric:normal;font-feature-settings:normal;text-align:start;writing-mode:lr-tb;text-anchor:start;fill:#000000;fill-opacity:1;stroke:#333333;stroke-width:0.09999999;stroke-linecap:round;stroke-miterlimit:4;stroke-dasharray:none;stroke-dashoffset:0;stroke-opacity:1"
       id="path1662"
       inkscape:connector-curvature="0" />
    <path
       d="m 58.416738,91.681856 q -0.438862,0 -0.789949,-0.188201 -0.344819,-0.194476 -0.551711,-0.583414 -0.200622,-0.395214 -0.200622,-0.984903 0,-0.583401 0.194353,-0.966078 0.200622,-0.382664 0.545441,-0.570865 0.344819,-0.194463 0.783679,-0.194463 0.43886,0 0.789949,0.194463 0.351089,0.188201 0.55171,0.57714 0.206892,0.382664 0.206892,0.978627 0,0.583415 -0.200622,0.972353 -0.200622,0.382664 -0.545441,0.57714 -0.344819,0.188201 -0.783679,0.188201 z m -0.0062,-0.457947 q 0.489015,0 0.727254,-0.345029 0.238239,-0.351303 0.238239,-0.947267 0,-0.595951 -0.244508,-0.934705 -0.238239,-0.345029 -0.727255,-0.345029 -0.489015,0 -0.733524,0.345029 -0.238239,0.338754 -0.238239,0.934705 0,0.595964 0.244509,0.947267 0.244507,0.345029 0.733524,0.345029 z"
       style="font-style:normal;font-variant:normal;font-weight:normal;font-stretch:normal;font-size:4.93888903px;line-height:1.25;font-family:'Noto Sans Mono';-inkscape-font-specification:'Noto Sans Mono, Normal';font-variant-ligatures:normal;font-variant-caps:normal;font-variant-numeric:normal;font-feature-settings:normal;text-align:start;writing-mode:lr-tb;text-anchor:start;fill:#000000;fill-opacity:1;stroke:#333333;stroke-width:0.09999999;stroke-linecap:round;stroke-miterlimit:4;stroke-dasharray:none;stroke-dashoffset:0;stroke-opacity:1"
       id="path1664"
       inkscape:connector-curvature="0" />
    <path
       d="M 64.954617,91.681856 V 88.3194 h 0.451399 l 0.08151,0.495594 h 0.03134 q 0.144197,-0.288569 0.426321,-0.420311 0.288394,-0.138004 0.670831,-0.138004 0.507824,0 0.815026,0.288557 0.313472,0.282295 0.313472,0.890808 v 2.245812 h -0.564249 v -2.145443 q 0,-0.426587 -0.175544,-0.62105 -0.169275,-0.20075 -0.55171,-0.20075 -0.514094,0 -0.727256,0.326218 -0.206891,0.326204 -0.206891,0.915881 v 1.725144 z"
       style="font-style:normal;font-variant:normal;font-weight:normal;font-stretch:normal;font-size:4.93888903px;line-height:1.25;font-family:'Noto Sans Mono';-inkscape-font-specification:'Noto Sans Mono, Normal';font-variant-ligatures:normal;font-variant-caps:normal;font-variant-numeric:normal;font-feature-settings:normal;text-align:start;writing-mode:lr-tb;text-anchor:start;fill:#000000;fill-opacity:1;stroke:#333333;stroke-width:0.09999999;stroke-linecap:round;stroke-miterlimit:4;stroke-dasharray:none;stroke-dashoffset:0;stroke-opacity:1"
       id="path1666"
       inkscape:connector-curvature="0" />
    <path
       d="m 82.458208,87.7109 q -0.163006,0 -0.282124,-0.09412 -0.11285,-0.100343 -0.11285,-0.301119 0,-0.207012 0.11285,-0.301119 0.11912,-0.100344 0.282124,-0.100344 0.156736,0 0.275855,0.100344 0.119121,0.09412 0.119121,0.301119 0,0.200737 -0.119121,0.301119 -0.11912,0.09412 -0.275855,0.09412 z m -1.423162,3.970956 v -0.376402 l 1.197463,-0.09412 v -2.421476 l -1.097152,-0.08154 v -0.388939 h 1.661401 v 2.891973 l 1.122229,0.09412 v 0.376389 z"
       style="font-style:normal;font-variant:normal;font-weight:normal;font-stretch:normal;font-size:4.93888903px;line-height:1.25;font-family:'Noto Sans Mono';-inkscape-font-specification:'Noto Sans Mono, Normal';font-variant-ligatures:normal;font-variant-caps:normal;font-variant-numeric:normal;font-feature-settings:normal;text-align:start;writing-mode:lr-tb;text-anchor:start;fill:#000000;fill-opacity:1;stroke:#333333;stroke-width:0.09999999;stroke-linecap:round;stroke-miterlimit:4;stroke-dasharray:none;stroke-dashoffset:0;stroke-opacity:1"
       id="path1668"
       inkscape:connector-curvature="0" />
    <path
       d="m 90.000682,91.68183 q -0.313471,0 -0.601865,-0.0564 -0.282125,-0.0564 -0.489016,-0.156841 v -0.52068 q 0.21943,0.100343 0.482746,0.188201 0.269585,0.08154 0.639483,0.08154 0.413783,0 0.583058,-0.125493 0.175543,-0.131742 0.175543,-0.376389 0,-0.131742 -0.0627,-0.213287 -0.05643,-0.08777 -0.2257,-0.175652 -0.169274,-0.08777 -0.495286,-0.225836 -0.32601,-0.138017 -0.55798,-0.263471 -0.231969,-0.131742 -0.357357,-0.301119 -0.125391,-0.175652 -0.125391,-0.445398 0,-0.445398 0.338549,-0.671234 0.344819,-0.225836 0.952954,-0.225836 0.275855,0 0.526633,0.05017 0.250777,0.05017 0.520363,0.163102 l -0.169275,0.439123 q -0.250777,-0.106694 -0.463937,-0.144278 -0.206893,-0.0376 -0.413784,-0.0376 -0.388704,0 -0.570518,0.100343 -0.175545,0.100343 -0.175545,0.313656 0,0.138016 0.07524,0.23211 0.08151,0.09412 0.257046,0.181927 0.181814,0.08777 0.476478,0.213287 0.33228,0.144278 0.564249,0.263471 0.231969,0.112918 0.351089,0.282295 0.11912,0.163103 0.11912,0.451672 0,0.476771 -0.344817,0.727693 -0.33855,0.250935 -1.009381,0.250935 z"
       style="font-style:normal;font-variant:normal;font-weight:normal;font-stretch:normal;font-size:4.93888903px;line-height:1.25;font-family:'Noto Sans Mono';-inkscape-font-specification:'Noto Sans Mono, Normal';font-variant-ligatures:normal;font-variant-caps:normal;font-variant-numeric:normal;font-feature-settings:normal;text-align:start;writing-mode:lr-tb;text-anchor:start;fill:#000000;fill-opacity:1;stroke:#333333;stroke-width:0.09999999;stroke-linecap:round;stroke-miterlimit:4;stroke-dasharray:none;stroke-dashoffset:0;stroke-opacity:1"
       id="path1670"
       inkscape:connector-curvature="0" />
    <path
       d="m 98.794767,91.681856 q -0.357362,0 -0.645752,-0.09412 -0.282125,-0.09412 -0.44513,-0.332479 -0.163005,-0.238386 -0.163005,-0.658685 v -1.869423 h -0.915338 v -0.388938 l 0.915338,-0.100344 0.112849,-0.878246 h 0.4514 v 0.89707 h 1.310312 v 0.470497 h -1.310312 v 1.762779 q 0,0.382664 0.169275,0.558316 0.169272,0.175651 0.557975,0.175651 0.163004,0 0.351092,-0.03137 0.188087,-0.03137 0.326008,-0.06275 v 0.451672 q -0.150463,0.0376 -0.332279,0.06897 -0.181817,0.03137 -0.382433,0.03137 z"
       style="font-style:normal;font-variant:normal;font-weight:normal;font-stretch:normal;font-size:4.93888903px;line-height:1.25;font-family:'Noto Sans Mono';-inkscape-font-specification:'Noto Sans Mono, Normal';font-variant-ligatures:normal;font-variant-caps:normal;font-variant-numeric:normal;font-feature-settings:normal;text-align:start;writing-mode:lr-tb;text-anchor:start;fill:#000000;fill-opacity:1;stroke:#333333;stroke-width:0.09999999;stroke-linecap:round;stroke-miterlimit:4;stroke-dasharray:none;stroke-dashoffset:0;stroke-opacity:1"
       id="path1672"
       inkscape:connector-curvature="0" />
    <path
       d="m 113.8246,93.143323 q -0.35108,0 -0.65202,-0.06897 -0.30094,-0.06275 -0.55798,-0.169377 v -0.501857 q 0.25077,0.144279 0.57679,0.213287 0.33228,0.07532 0.61441,0.07532 0.57052,0 0.79622,-0.269759 0.2257,-0.263471 0.2257,-0.727692 v -0.119142 q 0,-0.07532 0,-0.144279 0.006,-0.06897 0.0188,-0.213299 h -0.025 q -0.17555,0.257209 -0.41379,0.357578 -0.23197,0.09412 -0.56425,0.09412 -0.67083,0 -1.04073,-0.451685 -0.36362,-0.457934 -0.36362,-1.273459 0,-0.8218 0.36362,-1.292283 0.3699,-0.470496 1.00939,-0.470496 0.33855,0 0.57051,0.112918 0.23197,0.106694 0.41378,0.363853 h 0.0314 l 0.0753,-0.414038 h 0.4514 v 3.450276 q 0,0.721418 -0.36989,1.085271 -0.3699,0.363853 -1.15985,0.363853 z m 0.12541,-1.932156 q 0.42006,0 0.6583,-0.269759 0.23823,-0.276021 0.23823,-0.878246 V 89.93142 q 0,-0.683783 -0.25077,-0.984889 -0.24451,-0.307394 -0.66456,-0.307394 -0.47648,0 -0.69591,0.338754 -0.21943,0.33248 -0.21943,0.947254 0,0.627324 0.2257,0.959804 0.23197,0.326218 0.70844,0.326218 z"
       style="font-style:normal;font-variant:normal;font-weight:normal;font-stretch:normal;font-size:4.93888903px;line-height:1.25;font-family:'Noto Sans Mono';-inkscape-font-specification:'Noto Sans Mono, Normal';font-variant-ligatures:normal;font-variant-caps:normal;font-variant-numeric:normal;font-feature-settings:normal;text-align:start;writing-mode:lr-tb;text-anchor:start;fill:#000000;fill-opacity:1;stroke:#333333;stroke-width:0.09999999;stroke-linecap:round;stroke-miterlimit:4;stroke-dasharray:none;stroke-dashoffset:0;stroke-opacity:1"
       id="path1674"
       inkscape:connector-curvature="0" />
    <path
       d="m 122.34677,91.681907 q -0.80875,0 -1.27269,-0.445411 -0.46394,-0.445397 -0.46394,-1.286008 0,-0.552041 0.20061,-0.94098 0.20063,-0.395213 0.55799,-0.602238 0.35735,-0.213287 0.83383,-0.213287 0.65829,0 1.03447,0.426574 0.38243,0.426586 0.38243,1.166828 v 0.257197 h -2.43881 q 0.0127,0.439136 0.163,0.696332 0.15673,0.25721 0.42006,0.370128 0.26958,0.106694 0.62067,0.106694 0.26958,0 0.53917,-0.07532 0.26958,-0.07532 0.54543,-0.20075 v 0.501869 q -0.28838,0.125493 -0.57677,0.181926 -0.2884,0.0564 -0.54545,0.0564 z M 121.1932,89.59291 h 1.86202 q -0.0188,-0.439123 -0.23824,-0.690058 -0.21316,-0.250922 -0.61441,-0.250922 -0.42632,0 -0.68337,0.257197 -0.25705,0.250934 -0.326,0.683783 z"
       style="font-style:normal;font-variant:normal;font-weight:normal;font-stretch:normal;font-size:4.93888903px;line-height:1.25;font-family:'Noto Sans Mono';-inkscape-font-specification:'Noto Sans Mono, Normal';font-variant-ligatures:normal;font-variant-caps:normal;font-variant-numeric:normal;font-feature-settings:normal;text-align:start;writing-mode:lr-tb;text-anchor:start;fill:#000000;fill-opacity:1;stroke:#333333;stroke-width:0.09999999;stroke-linecap:round;stroke-miterlimit:4;stroke-dasharray:none;stroke-dashoffset:0;stroke-opacity:1"
       id="path1676"
       inkscape:connector-curvature="0" />
    <path
       d="m 130.00101,87.7109 q -0.16301,0 -0.28213,-0.09412 -0.11285,-0.100343 -0.11285,-0.301119 0,-0.207012 0.11285,-0.301106 0.11907,-0.100344 0.28213,-0.100344 0.15673,0 0.27585,0.100344 0.11907,0.09412 0.11907,0.301106 0,0.20075 -0.11907,0.301119 -0.11907,0.09412 -0.27585,0.09412 z m -1.42317,3.970956 v -0.376402 l 1.19747,-0.09412 V 88.78987 l -1.09716,-0.08154 v -0.388939 h 1.66141 v 2.89196 l 1.12222,0.09412 v 0.376389 z"
       style="font-style:normal;font-variant:normal;font-weight:normal;font-stretch:normal;font-size:4.93888903px;line-height:1.25;font-family:'Noto Sans Mono';-inkscape-font-specification:'Noto Sans Mono, Normal';font-variant-ligatures:normal;font-variant-caps:normal;font-variant-numeric:normal;font-feature-settings:normal;text-align:start;writing-mode:lr-tb;text-anchor:start;fill:#000000;fill-opacity:1;stroke:#333333;stroke-width:0.09999999;stroke-linecap:round;stroke-miterlimit:4;stroke-dasharray:none;stroke-dashoffset:0;stroke-opacity:1"
       id="path1678"
       inkscape:connector-curvature="0" />
    <path
       d="m 136.40666,91.681856 v -0.376389 l 1.22881,-0.09412 v -3.826665 l -1.19119,-0.08154 v -0.388939 h 1.75544 v 4.297149 l 1.09087,0.09412 v 0.376402 z"
       style="font-style:normal;font-variant:normal;font-weight:normal;font-stretch:normal;font-size:4.93888903px;line-height:1.25;font-family:'Noto Sans Mono';-inkscape-font-specification:'Noto Sans Mono, Normal';font-variant-ligatures:normal;font-variant-caps:normal;font-variant-numeric:normal;font-feature-settings:normal;text-align:start;writing-mode:lr-tb;text-anchor:start;fill:#000000;fill-opacity:1;stroke:#333333;stroke-width:0.09999999;stroke-linecap:round;stroke-miterlimit:4;stroke-dasharray:none;stroke-dashoffset:0;stroke-opacity:1"
       id="path1680"
       inkscape:connector-curvature="0" />
    <path
       d="m 145.7625,90.351938 -0.10028,-3.211891 h 0.68337 l -0.10029,3.211891 z m 0.23824,1.329918 q -0.163,0 -0.27585,-0.100344 -0.11285,-0.100343 -0.11285,-0.326192 0,-0.238385 0.11285,-0.332479 0.11285,-0.09412 0.27585,-0.09412 0.16301,0 0.27586,0.09412 0.11285,0.09412 0.11285,0.332479 0,0.225824 -0.11285,0.326192 -0.11285,0.100344 -0.27586,0.100344 z"
       style="font-style:normal;font-variant:normal;font-weight:normal;font-stretch:normal;font-size:4.93888903px;line-height:1.25;font-family:'Noto Sans Mono';-inkscape-font-specification:'Noto Sans Mono, Normal';font-variant-ligatures:normal;font-variant-caps:normal;font-variant-numeric:normal;font-feature-settings:normal;text-align:start;writing-mode:lr-tb;text-anchor:start;fill:#000000;fill-opacity:1;stroke:#333333;stroke-width:0.09999999;stroke-linecap:round;stroke-miterlimit:4;stroke-dasharray:none;stroke-dashoffset:0;stroke-opacity:1"
       id="path1682"
       inkscape:connector-curvature="0" />
    <g
       id="g4140"
       inkscape:label="Grid_Polar:X16:Y1"
       transform="matrix(0.31535771,0,0,0.30663513,22.791341,85.00067)"
       style="stroke:#999999;stroke-width:3.21578741">
      <g
         id="g4134"
         inkscape:label="MajorXGridlines"
         style="stroke:#999999;stroke-width:3.21578741">
        <path
           id="path4104"
           inkscape:label="MajorXDiv1"
           style="fill:none;stroke:#999999;stroke-width:1.70168734"
           d="M 25.135417,0 V 26.458333"
           inkscape:connector-curvature="0" />
        <path
           id="path4106"
           inkscape:label="MajorXDiv2"
           style="fill:none;stroke:#999999;stroke-width:1.70168734"
           d="M 50.270833,0 V 26.458333"
           inkscape:connector-curvature="0" />
        <path
           id="path4108"
           inkscape:label="MajorXDiv3"
           style="fill:none;stroke:#999999;stroke-width:1.70168734"
           d="M 75.40625,0 V 26.458333"
           inkscape:connector-curvature="0" />
        <path
           id="path4110"
           inkscape:label="MajorXDiv4"
           style="fill:none;stroke:#999999;stroke-width:1.70168734"
           d="M 100.54167,0 V 26.458333"
           inkscape:connector-curvature="0" />
        <path
           id="path4112"
           inkscape:label="MajorXDiv5"
           style="fill:none;stroke:#999999;stroke-width:1.70168734"
           d="M 125.67708,0 V 26.458333"
           inkscape:connector-curvature="0" />
        <path
           id="path4114"
           inkscape:label="MajorXDiv6"
           style="fill:none;stroke:#999999;stroke-width:1.70168734"
           d="M 150.8125,0 V 26.458333"
           inkscape:connector-curvature="0" />
        <path
           id="path4116"
           inkscape:label="MajorXDiv7"
           style="fill:none;stroke:#999999;stroke-width:1.70168734"
           d="M 175.94792,0 V 26.458333"
           inkscape:connector-curvature="0" />
        <path
           id="path4118"
           inkscape:label="MajorXDiv8"
           style="fill:none;stroke:#999999;stroke-width:1.70168734"
           d="M 201.08333,0 V 26.458333"
           inkscape:connector-curvature="0" />
        <path
           id="path4120"
           inkscape:label="MajorXDiv9"
           style="fill:none;stroke:#999999;stroke-width:1.70168734"
           d="M 226.21875,0 V 26.458333"
           inkscape:connector-curvature="0" />
        <path
           id="path4122"
           inkscape:label="MajorXDiv10"
           style="fill:none;stroke:#999999;stroke-width:1.70168734"
           d="M 251.35417,0 V 26.458333"
           inkscape:connector-curvature="0" />
        <path
           id="path4124"
           inkscape:label="MajorXDiv11"
           style="fill:none;stroke:#999999;stroke-width:1.70168734"
           d="M 276.48958,0 V 26.458333"
           inkscape:connector-curvature="0" />
        <path
           id="path4126"
           inkscape:label="MajorXDiv12"
           style="fill:none;stroke:#999999;stroke-width:1.70168734"
           d="M 301.625,0 V 26.458333"
           inkscape:connector-curvature="0" />
        <path
           id="path4128"
           inkscape:label="MajorXDiv13"
           style="fill:none;stroke:#999999;stroke-width:1.70168734"
           d="M 326.76042,0 V 26.458333"
           inkscape:connector-curvature="0" />
        <path
           id="path4130"
           inkscape:label="MajorXDiv14"
           style="fill:none;stroke:#999999;stroke-width:1.70168734"
           d="M 351.89583,0 V 26.458333"
           inkscape:connector-curvature="0" />
        <path
           id="path4132"
           inkscape:label="MajorXDiv15"
           style="fill:none;stroke:#999999;stroke-width:1.70168734"
           d="M 377.03125,0 V 26.458333"
           inkscape:connector-curvature="0" />
      </g>
      <g
         id="g4136"
         inkscape:label="MajorYGridlines"
         style="stroke:#999999;stroke-width:3.21578741" />
      <rect
         id="rect4138"
         inkscape:label="Border"
         y="0"
         x="0"
         width="402.16666"
         style="fill:none;stroke:#999999;stroke-width:0.85084367"
         height="26.458334" />
    </g>
    <path
       style="opacity:1;fill:#ff6600;fill-opacity:1;stroke:#ff6600;stroke-width:0.09999999;stroke-linecap:round;stroke-miterlimit:4;stroke-dasharray:none;stroke-dashoffset:0;stroke-opacity:1"
       id="path4182"
       sodipodi:type="arc"
       sodipodi:cx="22.773064"
       sodipodi:cy="81.231339"
       sodipodi:rx="2.5719719"
       sodipodi:ry="2.5735266"
       sodipodi:start="0"
       sodipodi:end="6.2741096"
       sodipodi:open="true"
       d="m 25.345036,81.231339 a 2.5719719,2.5735266 0 0 1 -2.566137,2.573519 2.5719719,2.5735266 0 0 1 -2.577781,-2.561841 2.5719719,2.5735266 0 0 1 2.554439,-2.585146 2.5719719,2.5735266 0 0 1 2.589373,2.550111" />
    <text
       xml:space="preserve"
       style="font-style:normal;font-variant:normal;font-weight:normal;font-stretch:normal;font-size:3.45910883px;line-height:1.25;font-family:'Noto Sans Mono';-inkscape-font-specification:'Noto Sans Mono, Normal';font-variant-ligatures:normal;font-variant-caps:normal;font-variant-numeric:normal;font-feature-settings:normal;text-align:start;writing-mode:lr-tb;text-anchor:start;opacity:1;fill:#f2f2f2;fill-opacity:1;stroke:#f2f2f2;stroke-width:0.09999999;stroke-linecap:round;stroke-miterlimit:4;stroke-dasharray:none;stroke-dashoffset:0;stroke-opacity:1"
       x="22.081406"
       y="81.39164"
       id="text4186"
       transform="scale(0.98709865,1.01307)"><tspan
         sodipodi:role="line"
         id="tspan4184"
         x="22.081406"
         y="81.39164"
         style="font-style:normal;font-variant:normal;font-weight:normal;font-stretch:normal;font-size:3.45910954px;font-family:'Noto Sans';-inkscape-font-specification:'Noto Sans, Normal';font-variant-ligatures:normal;font-variant-caps:normal;font-variant-numeric:normal;font-feature-settings:normal;text-align:start;writing-mode:lr-tb;text-anchor:start;fill:#f2f2f2;stroke:#f2f2f2;stroke-width:0.09999999">0</tspan></text>
    <path
       d="m 144.46458,97.136841 a 2.5719719,2.5735266 0 0 1 -2.56614,2.57352 2.5719719,2.5735266 0 0 1 -2.57778,-2.561842 2.5719719,2.5735266 0 0 1 2.55444,-2.585145 2.5719719,2.5735266 0 0 1 2.58937,2.550111"
       sodipodi:open="true"
       sodipodi:end="6.2741096"
       sodipodi:start="0"
       sodipodi:ry="2.5735266"
       sodipodi:rx="2.5719719"
       sodipodi:cy="97.136841"
       sodipodi:cx="141.89261"
       sodipodi:type="arc"
       id="path4188"
       style="opacity:1;fill:#800066;fill-opacity:1;stroke:#800066;stroke-width:0.09999999;stroke-linecap:round;stroke-miterlimit:4;stroke-dasharray:none;stroke-dashoffset:0;stroke-opacity:1" />
    <text
       transform="scale(0.98709865,1.01307)"
       id="text4192"
       y="97.091942"
       x="142.27026"
       style="font-style:normal;font-variant:normal;font-weight:normal;font-stretch:normal;font-size:3.45910883px;line-height:1.25;font-family:'Noto Sans Mono';-inkscape-font-specification:'Noto Sans Mono, Normal';font-variant-ligatures:normal;font-variant-caps:normal;font-variant-numeric:normal;font-feature-settings:normal;text-align:start;writing-mode:lr-tb;text-anchor:start;opacity:1;fill:#f2f2f2;fill-opacity:1;stroke:#f2f2f2;stroke-width:0.09999999;stroke-linecap:round;stroke-miterlimit:4;stroke-dasharray:none;stroke-dashoffset:0;stroke-opacity:1"
       xml:space="preserve"><tspan
         style="font-style:normal;font-variant:normal;font-weight:normal;font-stretch:normal;font-size:3.45910954px;font-family:'Noto Sans';-inkscape-font-specification:'Noto Sans, Normal';font-variant-ligatures:normal;font-variant-caps:normal;font-variant-numeric:normal;font-feature-settings:normal;text-align:start;writing-mode:lr-tb;text-anchor:start;fill:#f2f2f2;stroke:#f2f2f2;stroke-width:0.09999999"
         y="97.091942"
         x="142.27026"
         id="tspan4190"
         sodipodi:role="line">-1</tspan></text>
    <path
       style="opacity:1;fill:#800066;fill-opacity:1;stroke:#800066;stroke-width:0.09999999;stroke-linecap:round;stroke-miterlimit:4;stroke-dasharray:none;stroke-dashoffset:0;stroke-opacity:1"
       id="path4194"
       sodipodi:type="arc"
       sodipodi:cx="110.06612"
       sodipodi:cy="97.108307"
       sodipodi:rx="2.5719719"
       sodipodi:ry="2.5735266"
       sodipodi:start="0"
       sodipodi:end="6.2741096"
       sodipodi:open="true"
       d="m 112.63809,97.108307 a 2.5719719,2.5735266 0 0 1 -2.56614,2.57352 2.5719719,2.5735266 0 0 1 -2.57778,-2.561842 2.5719719,2.5735266 0 0 1 2.55444,-2.585145 2.5719719,2.5735266 0 0 1 2.58937,2.550111" />
    <text
       xml:space="preserve"
       style="font-style:normal;font-variant:normal;font-weight:normal;font-stretch:normal;font-size:3.45910883px;line-height:1.25;font-family:'Noto Sans Mono';-inkscape-font-specification:'Noto Sans Mono, Normal';font-variant-ligatures:normal;font-variant-caps:normal;font-variant-numeric:normal;font-feature-settings:normal;text-align:start;writing-mode:lr-tb;text-anchor:start;opacity:1;fill:#f2f2f2;fill-opacity:1;stroke:#f2f2f2;stroke-width:0.09999999;stroke-linecap:round;stroke-miterlimit:4;stroke-dasharray:none;stroke-dashoffset:0;stroke-opacity:1"
       x="110.02781"
       y="97.063774"
       id="text4198"
       transform="scale(0.98709865,1.01307)"><tspan
         sodipodi:role="line"
         id="tspan4196"
         x="110.02781"
         y="97.063774"
         style="font-style:normal;font-variant:normal;font-weight:normal;font-stretch:normal;font-size:3.45910954px;font-family:'Noto Sans';-inkscape-font-specification:'Noto Sans, Normal';font-variant-ligatures:normal;font-variant-caps:normal;font-variant-numeric:normal;font-feature-settings:normal;text-align:start;writing-mode:lr-tb;text-anchor:start;fill:#f2f2f2;stroke:#f2f2f2;stroke-width:0.09999999">-5</tspan></text>
    <g
       id="g4227"
       transform="matrix(1.2694021,0,0,1.2701695,-25.200777,-21.531551)"
       style="stroke-width:0.78753442">
      <path
         style="opacity:1;fill:#ff6600;fill-opacity:1;stroke:#ff6600;stroke-width:0.07875344;stroke-linecap:round;stroke-miterlimit:4;stroke-dasharray:none;stroke-dashoffset:0;stroke-opacity:1"
         id="path4204"
         sodipodi:type="arc"
         sodipodi:cx="69.109306"
         sodipodi:cy="80.72924"
         sodipodi:rx="2.0261285"
         sodipodi:ry="2.0261285"
         sodipodi:start="0"
         sodipodi:end="6.2741096"
         sodipodi:open="true"
         d="m 71.135435,80.72924 a 2.0261285,2.0261285 0 0 1 -2.021532,2.026124 2.0261285,2.0261285 0 0 1 -2.030704,-2.016929 2.0261285,2.0261285 0 0 1 2.012316,-2.035276 2.0261285,2.0261285 0 0 1 2.039836,2.007693" />
      <text
         xml:space="preserve"
         style="font-style:normal;font-variant:normal;font-weight:normal;font-stretch:normal;font-size:2.72416735px;line-height:1.25;font-family:'Noto Sans Mono';-inkscape-font-specification:'Noto Sans Mono, Normal';font-variant-ligatures:normal;font-variant-caps:normal;font-variant-numeric:normal;font-feature-settings:normal;text-align:start;writing-mode:lr-tb;text-anchor:start;opacity:1;fill:#f2f2f2;fill-opacity:1;stroke:#f2f2f2;stroke-width:0.07875344;stroke-linecap:round;stroke-miterlimit:4;stroke-dasharray:none;stroke-dashoffset:0;stroke-opacity:1"
         x="69.212303"
         y="80.663383"
         id="text4208"
         transform="scale(0.98739697,1.0127639)"><tspan
           sodipodi:role="line"
           id="tspan4206"
           x="69.212303"
           y="80.663383"
           style="font-style:normal;font-variant:normal;font-weight:normal;font-stretch:normal;font-size:2.72416782px;font-family:'Noto Sans';-inkscape-font-specification:'Noto Sans, Normal';font-variant-ligatures:normal;font-variant-caps:normal;font-variant-numeric:normal;font-feature-settings:normal;text-align:start;writing-mode:lr-tb;text-anchor:start;fill:#f2f2f2;stroke:#f2f2f2;stroke-width:0.07875344">5</tspan></text>
    </g>
    <flowRoot
       xml:space="preserve"
       id="flowRoot4210"
       style="font-style:normal;font-variant:normal;font-weight:normal;font-stretch:normal;font-size:18.66666603px;line-height:1.25;font-family:'Noto Sans';-inkscape-font-specification:'Noto Sans, Normal';font-variant-ligatures:normal;font-variant-caps:normal;font-variant-numeric:normal;font-feature-settings:normal;text-align:start;writing-mode:lr-tb;text-anchor:start;opacity:1;fill:#ff6600;fill-opacity:1;stroke:#ff6600;stroke-width:0.37795275;stroke-linecap:round;stroke-miterlimit:4;stroke-dasharray:none;stroke-dashoffset:0;stroke-opacity:1"
       transform="scale(0.26458333)"><flowRegion
         id="flowRegion4212"><rect
           id="rect4214"
           width="39.202751"
           height="50.872066"
           x="238.40193"
           y="273.51685" /></flowRegion><flowPara
         id="flowPara4216"></flowPara></flowRoot>    <g
       id="g4232"
       transform="matrix(1.2694021,0,0,1.2701695,-13.771307,-22.10772)"
       style="stroke-width:0.78753442">
      <path
         d="m 93.091886,81.243011 a 2.0261285,2.0261285 0 0 1 -2.021531,2.026124 2.0261285,2.0261285 0 0 1 -2.030705,-2.016929 2.0261285,2.0261285 0 0 1 2.012316,-2.035276 2.0261285,2.0261285 0 0 1 2.039837,2.007693"
         sodipodi:open="true"
         sodipodi:end="6.2741096"
         sodipodi:start="0"
         sodipodi:ry="2.0261285"
         sodipodi:rx="2.0261285"
         sodipodi:cy="81.243011"
         sodipodi:cx="91.065758"
         sodipodi:type="arc"
         id="path4218"
         style="opacity:1;fill:#ff6600;fill-opacity:1;stroke:#ff6600;stroke-width:0.07875344;stroke-linecap:round;stroke-miterlimit:4;stroke-dasharray:none;stroke-dashoffset:0;stroke-opacity:1" />
      <text
         transform="scale(0.98739697,1.0127639)"
         id="text4222"
         y="81.192993"
         x="90.615044"
         style="font-style:normal;font-variant:normal;font-weight:normal;font-stretch:normal;font-size:2.72416735px;line-height:1.25;font-family:'Noto Sans Mono';-inkscape-font-specification:'Noto Sans Mono, Normal';font-variant-ligatures:normal;font-variant-caps:normal;font-variant-numeric:normal;font-feature-settings:normal;text-align:start;writing-mode:lr-tb;text-anchor:start;opacity:1;fill:#f2f2f2;fill-opacity:1;stroke:#f2f2f2;stroke-width:0.07875344;stroke-linecap:round;stroke-miterlimit:4;stroke-dasharray:none;stroke-dashoffset:0;stroke-opacity:1"
         xml:space="preserve"><tspan
           style="font-style:normal;font-variant:normal;font-weight:normal;font-stretch:normal;font-size:2.72416782px;font-family:'Noto Sans';-inkscape-font-specification:'Noto Sans, Normal';font-variant-ligatures:normal;font-variant-caps:normal;font-variant-numeric:normal;font-feature-settings:normal;text-align:start;writing-mode:lr-tb;text-anchor:start;fill:#f2f2f2;stroke:#f2f2f2;stroke-width:0.07875344"
           y="81.192993"
           x="90.615044"
           id="tspan4220"
           sodipodi:role="line">10</tspan></text>
    </g>
  </g>
</svg>
