<?xml version="1.0" encoding="UTF-8" standalone="no"?>
<!-- Created with Inkscape (http://www.inkscape.org/) -->

<svg
   xmlns:dc="http://purl.org/dc/elements/1.1/"
   xmlns:cc="http://creativecommons.org/ns#"
   xmlns:rdf="http://www.w3.org/1999/02/22-rdf-syntax-ns#"
   xmlns:svg="http://www.w3.org/2000/svg"
   xmlns="http://www.w3.org/2000/svg"
   xmlns:sodipodi="http://sodipodi.sourceforge.net/DTD/sodipodi-0.dtd"
   xmlns:inkscape="http://www.inkscape.org/namespaces/inkscape"
   width="187.6189mm"
   height="184.92842mm"
   viewBox="0 0 187.6189 184.92843"
   version="1.1"
   id="svg8"
   inkscape:version="0.92.3 (2405546, 2018-03-11)"
   sodipodi:docname="mengenlehre_mit_sets.svg">
  <defs
     id="defs2" />
  <sodipodi:namedview
     id="base"
     pagecolor="#ffffff"
     bordercolor="#666666"
     borderopacity="1.0"
     inkscape:pageopacity="0.0"
     inkscape:pageshadow="2"
     inkscape:zoom="1"
     inkscape:cx="274.82574"
     inkscape:cy="339.0231"
     inkscape:document-units="mm"
     inkscape:current-layer="layer1"
     showgrid="false"
     inkscape:window-width="1920"
     inkscape:window-height="1032"
     inkscape:window-x="0"
     inkscape:window-y="24"
     inkscape:window-maximized="1"
     inkscape:object-paths="true"
     fit-margin-top="0.1"
     fit-margin-bottom="0.1"
     fit-margin-right="0.1"
     fit-margin-left="0.1"
     showborder="false"
     inkscape:showpageshadow="false" />
  <metadata
     id="metadata5">
    <rdf:RDF>
      <cc:Work
         rdf:about="">
        <dc:format>image/svg+xml</dc:format>
        <dc:type
           rdf:resource="http://purl.org/dc/dcmitype/StillImage" />
        <dc:title></dc:title>
      </cc:Work>
    </rdf:RDF>
  </metadata>
  <g
     inkscape:label="Layer 1"
     inkscape:groupmode="layer"
     id="layer1"
     transform="translate(-19.569242,-65.149154)">
    <path
       style="opacity:1;fill:none;fill-opacity:1;stroke:#000080;stroke-width:0.1;stroke-linecap:round;stroke-miterlimit:4;stroke-dasharray:none;stroke-dashoffset:0;stroke-opacity:1"
       d="M 75.666891,112.18937 A 27.973822,27.973822 0 0 1 47.75654,140.16312 27.973822,27.973822 0 0 1 19.719536,112.31631 27.973822,27.973822 0 0 1 47.502659,84.216191 27.973822,27.973822 0 0 1 75.665739,111.93549"
       id="path815"
       inkscape:connector-curvature="0" />
    <path
       style="opacity:1;fill:none;fill-opacity:1;stroke:#000080;stroke-width:0.1;stroke-linecap:round;stroke-miterlimit:4;stroke-dasharray:none;stroke-dashoffset:0;stroke-opacity:1"
       d="M 104.55789,112.18937 A 27.973822,27.973822 0 0 1 76.647539,140.16312 27.973822,27.973822 0 0 1 48.610535,112.31631 27.973822,27.973822 0 0 1 76.393658,84.216191 27.973822,27.973822 0 0 1 104.55674,111.93549"
       id="path817"
       inkscape:connector-curvature="0" />
    <path
       style="opacity:1;fill:#dbe3de;fill-opacity:1;stroke:#000080;stroke-width:0.37795275;stroke-linecap:round;stroke-miterlimit:4;stroke-dasharray:none;stroke-dashoffset:0;stroke-opacity:1"
       d="M 566.05078,318.29688 A 105.72783,105.72783 0 0 0 461.04297,424.50195 105.72783,105.72783 0 0 0 567.00977,529.75 105.72783,105.72783 0 0 0 621.39258,514.42578 105.72783,105.72783 0 0 0 676.20508,529.75 105.72783,105.72783 0 0 0 781.69336,424.02344 l -0.006,-0.96094 A 105.72783,105.72783 0 0 0 675.24609,318.29688 105.72783,105.72783 0 0 0 621.35156,333.62695 105.72783,105.72783 0 0 0 566.05078,318.29688 Z"
       transform="scale(0.26458333)"
       id="path840"
       inkscape:connector-curvature="0" />
    <path
       style="opacity:1;fill:#dbe3de;fill-opacity:1;stroke:#000080;stroke-width:0.37795275;stroke-linecap:round;stroke-miterlimit:4;stroke-dasharray:none;stroke-dashoffset:0;stroke-opacity:1"
       d="M 179.53711,678.29688 A 105.72783,105.72783 0 0 0 74.53125,784.50195 105.72783,105.72783 0 0 0 180.49805,889.75 a 105.72783,105.72783 0 0 0 54.38086,-15.32422 105.72783,105.72783 0 0 1 -51.1543,-89.92383 105.72783,105.72783 0 0 1 51.11328,-90.875 105.72783,105.72783 0 0 0 -55.30078,-15.33007 z m 55.30078,15.33007 a 105.72783,105.72783 0 0 1 51.14258,89.43555 l 0.004,0.96094 A 105.72783,105.72783 0 0 1 234.879,874.42578 105.72783,105.72783 0 0 0 289.6915,889.75 105.72783,105.72783 0 0 0 395.17978,784.02344 l -0.004,-0.96094 A 105.72783,105.72783 0 0 0 288.73242,678.29688 105.72783,105.72783 0 0 0 234.83789,693.62695 Z"
       transform="scale(0.26458333)"
       id="path844"
       inkscape:connector-curvature="0" />
    <path
       style="opacity:1;fill:#dbe3de;fill-opacity:1;stroke:none;stroke-width:0.1;stroke-linecap:round;stroke-miterlimit:4;stroke-dasharray:none;stroke-dashoffset:0;stroke-opacity:1"
       d="m 62.167025,88.2525 a 27.973821,27.973821 0 0 0 -13.523722,24.04452 27.973821,27.973821 0 0 0 13.534575,23.79183 27.973821,27.973821 0 0 0 13.521655,-23.91895 l -0.001,-0.25373 A 27.973821,27.973821 0 0 0 62.167025,88.2525 Z"
       id="path852"
       inkscape:connector-curvature="0" />
    <path
       style="opacity:1;fill:#dbe3de;fill-opacity:1;stroke:none;stroke-width:0.1;stroke-linecap:round;stroke-miterlimit:4;stroke-dasharray:none;stroke-dashoffset:0;stroke-opacity:1"
       d="m 149.50249,179.24434 a 27.973821,27.973821 0 0 0 -27.78332,28.10009 27.973821,27.973821 0 0 0 28.03705,27.84688 27.973821,27.973821 0 0 0 14.38879,-4.05454 27.973821,27.973821 0 0 1 -1.3038,-0.7953 27.973821,27.973821 0 0 1 -2.22984,-1.68723 27.973821,27.973821 0 0 1 -2.05052,-1.90169 27.973821,27.973821 0 0 1 -1.85002,-2.09652 27.973821,27.973821 0 0 1 -1.63194,-2.27066 27.973821,27.973821 0 0 1 -1.39681,-2.42207 27.973821,27.973821 0 0 1 -1.14773,-2.54972 27.973821,27.973821 0 0 1 -0.88781,-2.65152 27.973821,27.973821 0 0 1 -0.61856,-2.72696 27.973821,27.973821 0 0 1 -0.34314,-2.77554 27.973821,27.973821 0 0 1 -0.0744,-1.91513 27.973821,27.973821 0 0 1 0.12712,-2.79311 27.973821,27.973821 0 0 1 0.40515,-2.76676 27.973821,27.973821 0 0 1 0.67954,-2.71249 27.973821,27.973821 0 0 1 0.94671,-2.63085 27.973821,27.973821 0 0 1 1.2051,-2.52336 27.973821,27.973821 0 0 1 1.45056,-2.39055 27.973821,27.973821 0 0 1 1.68207,-2.23346 27.973821,27.973821 0 0 1 1.89704,-2.05465 27.973821,27.973821 0 0 1 2.09186,-1.85519 27.973821,27.973821 0 0 1 2.26756,-1.63659 27.973821,27.973821 0 0 1 0.77101,-0.447 27.973821,27.973821 0 0 0 -14.63166,-4.05608 z"
       id="path848"
       inkscape:connector-curvature="0" />
    <path
       id="path864"
       d="m 178.14713,207.21013 a 27.973822,27.973822 0 0 1 -27.91035,27.97375 27.973822,27.973822 0 0 1 -28.037,-27.84681 27.973822,27.973822 0 0 1 27.78312,-28.10013 27.973822,27.973822 0 0 1 28.16308,27.71931"
       style="opacity:1;fill:none;fill-opacity:1;stroke:#000080;stroke-width:0.1;stroke-linecap:round;stroke-miterlimit:4;stroke-dasharray:none;stroke-dashoffset:0;stroke-opacity:1"
       inkscape:connector-curvature="0" />
    <path
       id="path866"
       d="m 207.03813,207.21013 a 27.973822,27.973822 0 0 1 -27.91035,27.97375 27.973822,27.973822 0 0 1 -28.037,-27.84681 27.973822,27.973822 0 0 1 27.78312,-28.10013 27.973822,27.973822 0 0 1 28.16308,27.71931"
       style="opacity:1;fill:none;fill-opacity:1;stroke:#000080;stroke-width:0.1;stroke-linecap:round;stroke-miterlimit:4;stroke-dasharray:none;stroke-dashoffset:0;stroke-opacity:1"
       inkscape:connector-curvature="0" />
    <g
       aria-label="Schnittmenge"
       style="font-style:normal;font-variant:normal;font-weight:normal;font-stretch:normal;font-size:4.93888855px;line-height:1.25;font-family:'Noto Sans';-inkscape-font-specification:'Noto Sans, Normal';font-variant-ligatures:normal;font-variant-caps:normal;font-variant-numeric:normal;font-feature-settings:normal;text-align:start;writing-mode:lr-tb;text-anchor:start;opacity:1;fill:#000000;fill-opacity:1;stroke:#000080;stroke-width:0.1;stroke-linecap:round;stroke-miterlimit:4;stroke-dasharray:none;stroke-dashoffset:0;stroke-opacity:1"
       id="text855">
      <path
         d="m 48.499109,153.44981 q 0,0.4692 -0.340783,0.73096 -0.340784,0.26176 -0.918634,0.26176 -0.296333,0 -0.548216,-0.0445 -0.251884,-0.0444 -0.419806,-0.12347 v -0.42475 q 0.1778,0.079 0.439561,0.14323 0.2667,0.0642 0.548217,0.0642 0.390172,0 0.592666,-0.15311 0.202495,-0.1531 0.202495,-0.41486 0,-0.17287 -0.07408,-0.2914 -0.07408,-0.11853 -0.256823,-0.21731 -0.182738,-0.0988 -0.498827,-0.21731 -0.454378,-0.16298 -0.681567,-0.40005 -0.227189,-0.23707 -0.227189,-0.64699 0,-0.27658 0.143228,-0.47908 0.143228,-0.20249 0.395111,-0.31115 0.251883,-0.10865 0.587728,-0.10865 0.286455,0 0.528461,0.0543 0.242005,0.0543 0.4445,0.14322 l -0.138289,0.3803 q -0.182739,-0.079 -0.40005,-0.13335 -0.217311,-0.0543 -0.4445,-0.0543 -0.330906,0 -0.498828,0.14323 -0.167922,0.13829 -0.167922,0.37041 0,0.1778 0.07408,0.29634 0.07408,0.11853 0.242006,0.21731 0.167922,0.0938 0.454378,0.19755 0.31115,0.1136 0.523522,0.24695 0.217311,0.12841 0.325966,0.31115 0.113595,0.18274 0.113595,0.45931 z"
         style="stroke-width:0.1"
         id="path976"
         inkscape:connector-curvature="0" />
      <path
         d="m 50.212054,154.44253 q -0.3556,0 -0.627239,-0.14323 -0.271638,-0.14322 -0.429683,-0.4445 -0.153105,-0.30127 -0.153105,-0.77046 0,-0.48895 0.158044,-0.79516 0.162983,-0.30621 0.4445,-0.44944 0.281517,-0.14323 0.637117,-0.14323 0.197555,0 0.385233,0.0445 0.192617,0.0395 0.31115,0.0988 l -0.13335,0.36054 q -0.118533,-0.0444 -0.276578,-0.084 -0.158044,-0.0395 -0.296333,-0.0395 -0.780345,0 -0.780345,1.0026 0,0.47907 0.187678,0.73589 0.192617,0.25189 0.567972,0.25189 0.212373,0 0.380295,-0.0445 0.167922,-0.0444 0.306211,-0.10866 v 0.38523 q -0.13335,0.0692 -0.296333,0.10372 -0.158045,0.0395 -0.385234,0.0395 z"
         style="stroke-width:0.1"
         id="path978"
         inkscape:connector-curvature="0" />
      <path
         d="m 51.957797,150.63959 v 1.10137 q 0,0.19756 -0.02469,0.37042 h 0.02963 q 0.128411,-0.2025 0.345722,-0.30621 0.22225,-0.10372 0.479072,-0.10372 0.479072,0 0.721078,0.23213 0.246944,0.22719 0.246944,0.73589 v 1.72367 H 53.32587 v -1.69404 q 0,-0.63711 -0.592667,-0.63711 -0.4445,0 -0.612422,0.25188 -0.162983,0.24695 -0.162983,0.7112 v 1.36807 h -0.434622 v -3.75355 z"
         style="stroke-width:0.1"
         id="path980"
         inkscape:connector-curvature="0" />
      <path
         d="m 55.845628,151.69651 q 0.474133,0 0.716139,0.23213 0.242006,0.23213 0.242006,0.74083 v 1.72367 h -0.429684 v -1.69404 q 0,-0.63711 -0.592666,-0.63711 -0.439561,0 -0.607484,0.24694 -0.167922,0.24695 -0.167922,0.7112 v 1.37301 h -0.434622 v -2.64724 h 0.350661 l 0.06421,0.36054 h 0.02469 q 0.128411,-0.20744 0.3556,-0.30621 0.227189,-0.10372 0.479072,-0.10372 z"
         style="stroke-width:0.1"
         id="path982"
         inkscape:connector-curvature="0" />
      <path
         d="m 57.841866,150.75318 q 0.09878,0 0.172861,0.0692 0.07902,0.0642 0.07902,0.20743 0,0.14323 -0.07902,0.21237 -0.07408,0.0642 -0.172861,0.0642 -0.108656,0 -0.182739,-0.0642 -0.07408,-0.0691 -0.07408,-0.21237 0,-0.14323 0.07408,-0.20743 0.07408,-0.0692 0.182739,-0.0692 z m 0.212372,0.99272 v 2.64724 h -0.434622 v -2.64724 z"
         style="stroke-width:0.1"
         id="path984"
         inkscape:connector-curvature="0" />
      <path
         d="m 59.776983,154.08693 q 0.09878,0 0.202495,-0.0148 0.103717,-0.0148 0.167922,-0.0395 v 0.33091 q -0.06914,0.0346 -0.197555,0.0543 -0.128412,0.0247 -0.246945,0.0247 -0.207433,0 -0.385233,-0.0691 -0.172861,-0.0741 -0.281517,-0.25189 -0.108655,-0.1778 -0.108655,-0.49882 v -1.54094 h -0.375356 v -0.20743 l 0.380295,-0.17286 0.172861,-0.56303 h 0.256822 v 0.60748 h 0.765528 v 0.33584 h -0.765528 v 1.53106 q 0,0.242 0.113594,0.36054 0.118534,0.11359 0.301272,0.11359 z"
         style="stroke-width:0.1"
         id="path986"
         inkscape:connector-curvature="0" />
      <path
         d="m 61.561543,154.08693 q 0.09878,0 0.202494,-0.0148 0.103717,-0.0148 0.167922,-0.0395 v 0.33091 q -0.06914,0.0346 -0.197555,0.0543 -0.128411,0.0247 -0.246945,0.0247 -0.207433,0 -0.385233,-0.0691 -0.172861,-0.0741 -0.281517,-0.25189 -0.108655,-0.1778 -0.108655,-0.49882 v -1.54094 h -0.375356 v -0.20743 l 0.380295,-0.17286 0.172861,-0.56303 h 0.256822 v 0.60748 h 0.765528 v 0.33584 h -0.765528 v 1.53106 q 0,0.242 0.113595,0.36054 0.118533,0.11359 0.301272,0.11359 z"
         style="stroke-width:0.1"
         id="path988"
         inkscape:connector-curvature="0" />
      <path
         d="m 65.366108,151.69651 q 0.449439,0 0.671689,0.23213 0.22225,0.23213 0.22225,0.74083 v 1.72367 h -0.429683 v -1.70391 q 0,-0.62724 -0.538339,-0.62724 -0.385233,0 -0.553156,0.22225 -0.162983,0.22225 -0.162983,0.64699 v 1.46191 h -0.429683 v -1.70391 q 0,-0.62724 -0.543278,-0.62724 -0.40005,0 -0.553155,0.24694 -0.153106,0.24695 -0.153106,0.7112 v 1.37301 h -0.434622 v -2.64724 h 0.350661 l 0.06421,0.36054 h 0.0247 q 0.123472,-0.20744 0.330905,-0.30621 0.212373,-0.10372 0.449439,-0.10372 0.6223,0 0.809978,0.4445 h 0.02469 q 0.13335,-0.22719 0.360539,-0.33584 0.227189,-0.10866 0.48895,-0.10866 z"
         style="stroke-width:0.1"
         id="path990"
         inkscape:connector-curvature="0" />
      <path
         d="m 68.104953,151.69651 q 0.335845,0 0.582789,0.14817 0.246945,0.14816 0.375356,0.4198 0.13335,0.2667 0.13335,0.62724 v 0.26176 h -1.812572 q 0.0099,0.44944 0.227189,0.68651 0.22225,0.23212 0.617361,0.23212 0.251883,0 0.4445,-0.0445 0.197555,-0.0494 0.404988,-0.13828 v 0.38029 q -0.202494,0.0889 -0.40005,0.12841 -0.197555,0.0445 -0.469194,0.0445 -0.380294,0 -0.66675,-0.1531 -0.286455,-0.15311 -0.449439,-0.45438 -0.158044,-0.30127 -0.158044,-0.74577 0,-0.43463 0.143228,-0.74578 0.148166,-0.31115 0.409927,-0.47907 0.2667,-0.16792 0.617361,-0.16792 z m -0.0049,0.3556 q -0.311149,0 -0.493888,0.20249 -0.1778,0.19756 -0.212373,0.55316 h 1.348317 q -0.0049,-0.33584 -0.158044,-0.54328 -0.153106,-0.21237 -0.484012,-0.21237 z"
         style="stroke-width:0.1"
         id="path992"
         inkscape:connector-curvature="0" />
      <path
         d="m 71.144606,151.69651 q 0.474133,0 0.716139,0.23213 0.242005,0.23213 0.242005,0.74083 v 1.72367 h -0.429683 v -1.69404 q 0,-0.63711 -0.592667,-0.63711 -0.439561,0 -0.607483,0.24694 -0.167922,0.24695 -0.167922,0.7112 v 1.37301 h -0.434622 v -2.64724 h 0.350661 l 0.06421,0.36054 h 0.02469 q 0.128411,-0.20744 0.3556,-0.30621 0.227189,-0.10372 0.479072,-0.10372 z"
         style="stroke-width:0.1"
         id="path994"
         inkscape:connector-curvature="0" />
      <path
         d="m 73.856983,151.69651 q 0.261761,0 0.469195,0.0988 0.212372,0.0988 0.360538,0.30127 h 0.02469 l 0.05927,-0.35066 H 75.1164 v 2.69169 q 0,0.56797 -0.291395,0.85443 -0.286455,0.28646 -0.893938,0.28646 -0.582789,0 -0.953206,-0.16793 v -0.40005 q 0.390172,0.20744 0.9779,0.20744 0.340783,0 0.5334,-0.2025 0.197555,-0.19755 0.197555,-0.54328 v -0.10371 q 0,-0.0593 0.0049,-0.16792 0.0049,-0.1136 0.0099,-0.15805 h -0.01976 q -0.2667,0.40005 -0.819856,0.40005 -0.513644,0 -0.805039,-0.36054 -0.286455,-0.36054 -0.286455,-1.00753 0,-0.63218 0.286455,-1.00259 0.291395,-0.37536 0.8001,-0.37536 z m 0.05927,0.36548 q -0.330906,0 -0.513645,0.2667 -0.182738,0.26176 -0.182738,0.75071 0,0.48895 0.1778,0.75071 0.1778,0.25682 0.528461,0.25682 0.40005,0 0.582788,-0.21237 0.182739,-0.21731 0.182739,-0.69638 v -0.10372 q 0,-0.53834 -0.187677,-0.77541 -0.187678,-0.23706 -0.587728,-0.23706 z"
         style="stroke-width:0.1"
         id="path996"
         inkscape:connector-curvature="0" />
      <path
         d="m 76.979519,151.69651 q 0.335844,0 0.582788,0.14817 0.246945,0.14816 0.375356,0.4198 0.13335,0.2667 0.13335,0.62724 v 0.26176 h -1.812572 q 0.0099,0.44944 0.227189,0.68651 0.22225,0.23212 0.617361,0.23212 0.251883,0 0.4445,-0.0445 0.197555,-0.0494 0.404989,-0.13828 v 0.38029 q -0.202495,0.0889 -0.40005,0.12841 -0.197556,0.0445 -0.469195,0.0445 -0.380294,0 -0.66675,-0.1531 -0.286455,-0.15311 -0.449439,-0.45438 -0.158044,-0.30127 -0.158044,-0.74577 0,-0.43463 0.143228,-0.74578 0.148166,-0.31115 0.409927,-0.47907 0.2667,-0.16792 0.617362,-0.16792 z m -0.0049,0.3556 q -0.31115,0 -0.493889,0.20249 -0.1778,0.19756 -0.212372,0.55316 h 1.348316 q -0.0049,-0.33584 -0.158044,-0.54328 -0.153106,-0.21237 -0.484011,-0.21237 z"
         style="stroke-width:0.1"
         id="path998"
         inkscape:connector-curvature="0" />
    </g>
    <g
       aria-label="Vereinigungsmenge"
       style="font-style:normal;font-variant:normal;font-weight:normal;font-stretch:normal;font-size:4.93888855px;line-height:1.25;font-family:'Noto Sans';-inkscape-font-specification:'Noto Sans, Normal';font-variant-ligatures:normal;font-variant-caps:normal;font-variant-numeric:normal;font-feature-settings:normal;text-align:start;writing-mode:lr-tb;text-anchor:start;opacity:1;fill:#000000;fill-opacity:1;stroke:#000080;stroke-width:0.1;stroke-linecap:round;stroke-miterlimit:4;stroke-dasharray:none;stroke-dashoffset:0;stroke-opacity:1"
       id="text859">
      <path
         d="m 144.09688,150.86678 -1.25942,3.52636 h -0.4445 l -1.25942,-3.52636 h 0.46426 l 0.79516,2.26201 q 0.079,0.21731 0.12841,0.40992 0.0543,0.18768 0.0938,0.36054 0.0346,-0.17286 0.0889,-0.36547 0.0543,-0.19262 0.13335,-0.41487 l 0.79022,-2.25213 z"
         style="stroke-width:0.1"
         id="path941"
         inkscape:connector-curvature="0" />
      <path
         d="m 145.44064,151.69651 q 0.33585,0 0.58279,0.14817 0.24694,0.14816 0.37536,0.4198 0.13335,0.2667 0.13335,0.62724 v 0.26176 h -1.81258 q 0.01,0.44944 0.22719,0.68651 0.22225,0.23212 0.61736,0.23212 0.25189,0 0.4445,-0.0445 0.19756,-0.0494 0.40499,-0.13828 v 0.38029 q -0.20249,0.0889 -0.40005,0.12841 -0.19755,0.0445 -0.46919,0.0445 -0.3803,0 -0.66675,-0.1531 -0.28646,-0.15311 -0.44944,-0.45438 -0.15805,-0.30127 -0.15805,-0.74577 0,-0.43463 0.14323,-0.74578 0.14817,-0.31115 0.40993,-0.47907 0.2667,-0.16792 0.61736,-0.16792 z m -0.005,0.3556 q -0.31115,0 -0.49389,0.20249 -0.1778,0.19756 -0.21237,0.55316 h 1.34832 q -0.005,-0.33584 -0.15805,-0.54328 -0.1531,-0.21237 -0.48401,-0.21237 z"
         style="stroke-width:0.1"
         id="path943"
         inkscape:connector-curvature="0" />
      <path
         d="m 148.44078,151.69651 q 0.0741,0 0.15805,0.01 0.084,0.005 0.1531,0.0197 l -0.0543,0.40005 q -0.0642,-0.0148 -0.14323,-0.0247 -0.079,-0.01 -0.14323,-0.01 -0.20249,0 -0.38029,0.1136 -0.1778,0.10865 -0.28646,0.31115 -0.10372,0.19755 -0.10372,0.46425 v 1.41252 h -0.43462 v -2.64724 h 0.3556 l 0.0494,0.48401 h 0.0198 q 0.12347,-0.21731 0.32596,-0.37536 0.20744,-0.15804 0.48401,-0.15804 z"
         style="stroke-width:0.1"
         id="path945"
         inkscape:connector-curvature="0" />
      <path
         d="m 150.16731,151.69651 q 0.33585,0 0.58279,0.14817 0.24695,0.14816 0.37536,0.4198 0.13335,0.2667 0.13335,0.62724 v 0.26176 h -1.81258 q 0.01,0.44944 0.22719,0.68651 0.22225,0.23212 0.61736,0.23212 0.25189,0 0.4445,-0.0445 0.19756,-0.0494 0.40499,-0.13828 v 0.38029 q -0.20249,0.0889 -0.40005,0.12841 -0.19755,0.0445 -0.46919,0.0445 -0.3803,0 -0.66675,-0.1531 -0.28646,-0.15311 -0.44944,-0.45438 -0.15804,-0.30127 -0.15804,-0.74577 0,-0.43463 0.14322,-0.74578 0.14817,-0.31115 0.40993,-0.47907 0.2667,-0.16792 0.61736,-0.16792 z m -0.005,0.3556 q -0.31115,0 -0.49389,0.20249 -0.1778,0.19756 -0.21237,0.55316 h 1.34832 q -0.005,-0.33584 -0.15805,-0.54328 -0.1531,-0.21237 -0.48401,-0.21237 z"
         style="stroke-width:0.1"
         id="path947"
         inkscape:connector-curvature="0" />
      <path
         d="m 152.15498,150.75318 q 0.0988,0 0.17286,0.0692 0.079,0.0642 0.079,0.20743 0,0.14323 -0.079,0.21237 -0.0741,0.0642 -0.17286,0.0642 -0.10865,0 -0.18274,-0.0642 -0.0741,-0.0691 -0.0741,-0.21237 0,-0.14323 0.0741,-0.20743 0.0741,-0.0692 0.18274,-0.0692 z m 0.21238,0.99272 v 2.64724 h -0.43463 v -2.64724 z"
         style="stroke-width:0.1"
         id="path949"
         inkscape:connector-curvature="0" />
      <path
         d="m 154.48027,151.69651 q 0.47414,0 0.71614,0.23213 0.24201,0.23213 0.24201,0.74083 v 1.72367 h -0.42969 v -1.69404 q 0,-0.63711 -0.59266,-0.63711 -0.43956,0 -0.60749,0.24694 -0.16792,0.24695 -0.16792,0.7112 v 1.37301 h -0.43462 v -2.64724 h 0.35066 l 0.0642,0.36054 h 0.0247 q 0.12841,-0.20744 0.3556,-0.30621 0.22719,-0.10372 0.47907,-0.10372 z"
         style="stroke-width:0.1"
         id="path951"
         inkscape:connector-curvature="0" />
      <path
         d="m 156.47651,150.75318 q 0.0988,0 0.17286,0.0692 0.079,0.0642 0.079,0.20743 0,0.14323 -0.079,0.21237 -0.0741,0.0642 -0.17286,0.0642 -0.10865,0 -0.18274,-0.0642 -0.0741,-0.0691 -0.0741,-0.21237 0,-0.14323 0.0741,-0.20743 0.0741,-0.0692 0.18274,-0.0692 z m 0.21237,0.99272 v 2.64724 h -0.43462 v -2.64724 z"
         style="stroke-width:0.1"
         id="path953"
         inkscape:connector-curvature="0" />
      <path
         d="m 158.46596,151.69651 q 0.26176,0 0.46919,0.0988 0.21237,0.0988 0.36054,0.30127 h 0.0247 l 0.0593,-0.35066 h 0.34572 v 2.69169 q 0,0.56797 -0.29139,0.85443 -0.28646,0.28646 -0.89394,0.28646 -0.58279,0 -0.95321,-0.16793 v -0.40005 q 0.39018,0.20744 0.9779,0.20744 0.34079,0 0.5334,-0.2025 0.19756,-0.19755 0.19756,-0.54328 v -0.10371 q 0,-0.0593 0.005,-0.16792 0.005,-0.1136 0.01,-0.15805 h -0.0198 q -0.2667,0.40005 -0.81985,0.40005 -0.51365,0 -0.80504,-0.36054 -0.28646,-0.36054 -0.28646,-1.00753 0,-0.63218 0.28646,-1.00259 0.29139,-0.37536 0.8001,-0.37536 z m 0.0593,0.36548 q -0.3309,0 -0.51364,0.2667 -0.18274,0.26176 -0.18274,0.75071 0,0.48895 0.1778,0.75071 0.1778,0.25682 0.52846,0.25682 0.40005,0 0.58279,-0.21237 0.18274,-0.21731 0.18274,-0.69638 v -0.10372 q 0,-0.53834 -0.18768,-0.77541 -0.18768,-0.23706 -0.58773,-0.23706 z"
         style="stroke-width:0.1"
         id="path955"
         inkscape:connector-curvature="0" />
      <path
         d="m 162.77876,151.7459 v 2.64724 h -0.3556 l -0.0642,-0.35066 h -0.0198 q -0.12841,0.20743 -0.3556,0.30621 -0.22719,0.0938 -0.48401,0.0938 -0.47907,0 -0.72108,-0.22719 -0.242,-0.23213 -0.242,-0.73589 v -1.73355 h 0.43956 v 1.70391 q 0,0.63218 0.58773,0.63218 0.43956,0 0.60748,-0.24694 0.17286,-0.24695 0.17286,-0.7112 v -1.37795 z"
         style="stroke-width:0.1"
         id="path957"
         inkscape:connector-curvature="0" />
      <path
         d="m 164.8886,151.69651 q 0.47413,0 0.71613,0.23213 0.24201,0.23213 0.24201,0.74083 v 1.72367 h -0.42968 v -1.69404 q 0,-0.63711 -0.59267,-0.63711 -0.43956,0 -0.60748,0.24694 -0.16793,0.24695 -0.16793,0.7112 v 1.37301 h -0.43462 v -2.64724 h 0.35066 l 0.0642,0.36054 h 0.0247 q 0.12841,-0.20744 0.3556,-0.30621 0.22719,-0.10372 0.47908,-0.10372 z"
         style="stroke-width:0.1"
         id="path959"
         inkscape:connector-curvature="0" />
      <path
         d="m 167.60097,151.69651 q 0.26176,0 0.4692,0.0988 0.21237,0.0988 0.36053,0.30127 h 0.0247 l 0.0593,-0.35066 h 0.34572 v 2.69169 q 0,0.56797 -0.2914,0.85443 -0.28645,0.28646 -0.89394,0.28646 -0.58278,0 -0.9532,-0.16793 v -0.40005 q 0.39017,0.20744 0.9779,0.20744 0.34078,0 0.5334,-0.2025 0.19755,-0.19755 0.19755,-0.54328 v -0.10371 q 0,-0.0593 0.005,-0.16792 0.005,-0.1136 0.01,-0.15805 h -0.0197 q -0.2667,0.40005 -0.81986,0.40005 -0.51364,0 -0.80504,-0.36054 -0.28645,-0.36054 -0.28645,-1.00753 0,-0.63218 0.28645,-1.00259 0.2914,-0.37536 0.8001,-0.37536 z m 0.0593,0.36548 q -0.33091,0 -0.51365,0.2667 -0.18274,0.26176 -0.18274,0.75071 0,0.48895 0.1778,0.75071 0.1778,0.25682 0.52847,0.25682 0.40005,0 0.58278,-0.21237 0.18274,-0.21731 0.18274,-0.69638 v -0.10372 q 0,-0.53834 -0.18767,-0.77541 -0.18768,-0.23706 -0.58773,-0.23706 z"
         style="stroke-width:0.1"
         id="path961"
         inkscape:connector-curvature="0" />
      <path
         d="m 171.42483,153.66219 q 0,0.38523 -0.28646,0.58279 -0.28645,0.19755 -0.77046,0.19755 -0.27658,0 -0.47908,-0.0445 -0.19755,-0.0444 -0.35066,-0.12347 v -0.39511 q 0.15805,0.079 0.3803,0.14816 0.22719,0.0642 0.45931,0.0642 0.33091,0 0.47908,-0.10372 0.14816,-0.10865 0.14816,-0.28645 0,-0.0988 -0.0543,-0.1778 -0.0543,-0.079 -0.19756,-0.15805 -0.13829,-0.079 -0.40005,-0.1778 -0.25682,-0.0988 -0.43956,-0.19755 -0.18274,-0.0988 -0.28152,-0.23707 -0.0988,-0.13829 -0.0988,-0.3556 0,-0.33584 0.27164,-0.51858 0.27658,-0.18274 0.72108,-0.18274 0.24201,0 0.44944,0.0494 0.21237,0.0494 0.39511,0.12841 l -0.14817,0.34572 q -0.16792,-0.0691 -0.35066,-0.11853 -0.18274,-0.0494 -0.37535,-0.0494 -0.2667,0 -0.40993,0.0889 -0.13829,0.084 -0.13829,0.23213 0,0.11359 0.0642,0.18768 0.0642,0.0741 0.21237,0.14816 0.1531,0.0741 0.40499,0.16792 0.25188,0.0938 0.42968,0.19262 0.1778,0.0988 0.27164,0.24201 0.0938,0.13828 0.0938,0.35066 z"
         style="stroke-width:0.1"
         id="path963"
         inkscape:connector-curvature="0" />
      <path
         d="m 174.96856,151.69651 q 0.44944,0 0.67169,0.23213 0.22225,0.23213 0.22225,0.74083 v 1.72367 h -0.42969 v -1.70391 q 0,-0.62724 -0.53834,-0.62724 -0.38523,0 -0.55315,0.22225 -0.16298,0.22225 -0.16298,0.64699 v 1.46191 h -0.42969 v -1.70391 q 0,-0.62724 -0.54328,-0.62724 -0.40005,0 -0.55315,0.24694 -0.15311,0.24695 -0.15311,0.7112 v 1.37301 h -0.43462 v -2.64724 h 0.35066 l 0.0642,0.36054 h 0.0247 q 0.12347,-0.20744 0.33091,-0.30621 0.21237,-0.10372 0.44944,-0.10372 0.6223,0 0.80997,0.4445 h 0.0247 q 0.13335,-0.22719 0.36054,-0.33584 0.22719,-0.10866 0.48895,-0.10866 z"
         style="stroke-width:0.1"
         id="path965"
         inkscape:connector-curvature="0" />
      <path
         d="m 177.7074,151.69651 q 0.33585,0 0.58279,0.14817 0.24695,0.14816 0.37536,0.4198 0.13335,0.2667 0.13335,0.62724 v 0.26176 h -1.81257 q 0.01,0.44944 0.22718,0.68651 0.22225,0.23212 0.61737,0.23212 0.25188,0 0.44449,-0.0445 0.19756,-0.0494 0.40499,-0.13828 v 0.38029 q -0.20249,0.0889 -0.40005,0.12841 -0.19755,0.0445 -0.46919,0.0445 -0.38029,0 -0.66675,-0.1531 -0.28646,-0.15311 -0.44944,-0.45438 -0.15804,-0.30127 -0.15804,-0.74577 0,-0.43463 0.14322,-0.74578 0.14817,-0.31115 0.40993,-0.47907 0.2667,-0.16792 0.61736,-0.16792 z m -0.005,0.3556 q -0.31115,0 -0.49388,0.20249 -0.1778,0.19756 -0.21238,0.55316 h 1.34832 q -0.005,-0.33584 -0.15805,-0.54328 -0.1531,-0.21237 -0.48401,-0.21237 z"
         style="stroke-width:0.1"
         id="path967"
         inkscape:connector-curvature="0" />
      <path
         d="m 180.74706,151.69651 q 0.47413,0 0.71613,0.23213 0.24201,0.23213 0.24201,0.74083 v 1.72367 h -0.42968 v -1.69404 q 0,-0.63711 -0.59267,-0.63711 -0.43956,0 -0.60748,0.24694 -0.16793,0.24695 -0.16793,0.7112 v 1.37301 h -0.43462 v -2.64724 h 0.35066 l 0.0642,0.36054 h 0.0247 q 0.12841,-0.20744 0.3556,-0.30621 0.22719,-0.10372 0.47908,-0.10372 z"
         style="stroke-width:0.1"
         id="path969"
         inkscape:connector-curvature="0" />
      <path
         d="m 183.45943,151.69651 q 0.26176,0 0.4692,0.0988 0.21237,0.0988 0.36054,0.30127 h 0.0247 l 0.0593,-0.35066 h 0.34572 v 2.69169 q 0,0.56797 -0.2914,0.85443 -0.28645,0.28646 -0.89393,0.28646 -0.58279,0 -0.95321,-0.16793 v -0.40005 q 0.39017,0.20744 0.9779,0.20744 0.34078,0 0.5334,-0.2025 0.19756,-0.19755 0.19756,-0.54328 v -0.10371 q 0,-0.0593 0.005,-0.16792 0.005,-0.1136 0.01,-0.15805 h -0.0197 q -0.2667,0.40005 -0.81986,0.40005 -0.51364,0 -0.80504,-0.36054 -0.28645,-0.36054 -0.28645,-1.00753 0,-0.63218 0.28645,-1.00259 0.2914,-0.37536 0.8001,-0.37536 z m 0.0593,0.36548 q -0.33091,0 -0.51365,0.2667 -0.18273,0.26176 -0.18273,0.75071 0,0.48895 0.1778,0.75071 0.1778,0.25682 0.52846,0.25682 0.40005,0 0.58279,-0.21237 0.18273,-0.21731 0.18273,-0.69638 v -0.10372 q 0,-0.53834 -0.18767,-0.77541 -0.18768,-0.23706 -0.58773,-0.23706 z"
         style="stroke-width:0.1"
         id="path971"
         inkscape:connector-curvature="0" />
      <path
         d="m 186.58197,151.69651 q 0.33584,0 0.58279,0.14817 0.24694,0.14816 0.37535,0.4198 0.13335,0.2667 0.13335,0.62724 v 0.26176 h -1.81257 q 0.01,0.44944 0.22719,0.68651 0.22225,0.23212 0.61736,0.23212 0.25188,0 0.4445,-0.0445 0.19756,-0.0494 0.40499,-0.13828 v 0.38029 q -0.2025,0.0889 -0.40005,0.12841 -0.19756,0.0445 -0.4692,0.0445 -0.38029,0 -0.66675,-0.1531 -0.28645,-0.15311 -0.44943,-0.45438 -0.15805,-0.30127 -0.15805,-0.74577 0,-0.43463 0.14323,-0.74578 0.14817,-0.31115 0.40993,-0.47907 0.2667,-0.16792 0.61736,-0.16792 z m -0.005,0.3556 q -0.31115,0 -0.49389,0.20249 -0.1778,0.19756 -0.21237,0.55316 h 1.34831 q -0.005,-0.33584 -0.15804,-0.54328 -0.15311,-0.21237 -0.48401,-0.21237 z"
         style="stroke-width:0.1"
         id="path973"
         inkscape:connector-curvature="0" />
    </g>
    <g
       aria-label="Symmetrische Differenz"
       style="font-style:normal;font-variant:normal;font-weight:normal;font-stretch:normal;font-size:4.93888855px;line-height:1.25;font-family:'Noto Sans';-inkscape-font-specification:'Noto Sans, Normal';font-variant-ligatures:normal;font-variant-caps:normal;font-variant-numeric:normal;font-feature-settings:normal;text-align:start;writing-mode:lr-tb;text-anchor:start;opacity:1;fill:#000000;fill-opacity:1;stroke:#000080;stroke-width:0.1;stroke-linecap:round;stroke-miterlimit:4;stroke-dasharray:none;stroke-dashoffset:0;stroke-opacity:1"
       id="text863">
      <path
         d="m 36.905347,247.23091 q 0,0.4692 -0.340783,0.73096 -0.340783,0.26176 -0.918633,0.26176 -0.296333,0 -0.548217,-0.0445 -0.251883,-0.0445 -0.419805,-0.12347 v -0.42475 q 0.1778,0.079 0.439561,0.14323 0.2667,0.0642 0.548216,0.0642 0.390173,0 0.592667,-0.15311 0.202494,-0.15311 0.202494,-0.41487 0,-0.17286 -0.07408,-0.29139 -0.07408,-0.11853 -0.256822,-0.21731 -0.182739,-0.0988 -0.498828,-0.21731 -0.454378,-0.16299 -0.681566,-0.40005 -0.227189,-0.23707 -0.227189,-0.647 0,-0.27658 0.143227,-0.47907 0.143228,-0.20249 0.395112,-0.31115 0.251883,-0.10866 0.587727,-0.10866 0.286456,0 0.528461,0.0543 0.242006,0.0543 0.4445,0.14323 l -0.138289,0.38029 q -0.182738,-0.079 -0.40005,-0.13335 -0.217311,-0.0543 -0.444499,-0.0543 -0.330906,0 -0.498828,0.14322 -0.167922,0.13829 -0.167922,0.37042 0,0.1778 0.07408,0.29633 0.07408,0.11854 0.242005,0.21732 0.167923,0.0938 0.454378,0.19755 0.31115,0.1136 0.523522,0.24695 0.217311,0.12841 0.325967,0.31115 0.113594,0.18273 0.113594,0.45931 z"
         style="stroke-width:0.1"
         id="path898"
         inkscape:connector-curvature="0" />
      <path
         d="m 37.141565,245.527 h 0.464256 l 0.572911,1.50636 q 0.07408,0.20249 0.13335,0.38029 0.05927,0.1778 0.0889,0.34078 h 0.01976 q 0.02963,-0.12347 0.09384,-0.32102 0.06421,-0.2025 0.13335,-0.40499 l 0.538339,-1.50142 h 0.469194 l -1.140883,3.01272 q -0.143228,0.37535 -0.360539,0.5976 -0.217311,0.22225 -0.602544,0.22225 -0.118533,0 -0.207433,-0.0148 -0.0889,-0.01 -0.153106,-0.0247 v -0.34572 q 0.05433,0.01 0.128411,0.0198 0.07902,0.01 0.162983,0.01 0.227189,0 0.365478,-0.12841 0.138289,-0.12841 0.22225,-0.34078 l 0.138289,-0.35066 z"
         style="stroke-width:0.1"
         id="path900"
         inkscape:connector-curvature="0" />
      <path
         d="m 42.978174,245.47761 q 0.449438,0 0.671688,0.23212 0.22225,0.23213 0.22225,0.74084 v 1.72367 h -0.429683 v -1.70392 q 0,-0.62724 -0.538339,-0.62724 -0.385233,0 -0.553155,0.22225 -0.162984,0.22225 -0.162984,0.647 v 1.46191 h -0.429683 v -1.70392 q 0,-0.62724 -0.543278,-0.62724 -0.40005,0 -0.553155,0.24695 -0.153106,0.24694 -0.153106,0.7112 v 1.37301 H 40.074107 V 245.527 h 0.350661 l 0.06421,0.36053 h 0.02469 q 0.123472,-0.20743 0.330906,-0.30621 0.212372,-0.10371 0.449439,-0.10371 0.6223,0 0.809977,0.4445 h 0.02469 q 0.13335,-0.22719 0.360539,-0.33585 0.227189,-0.10865 0.48895,-0.10865 z"
         style="stroke-width:0.1"
         id="path902"
         inkscape:connector-curvature="0" />
      <path
         d="m 47.598735,245.47761 q 0.449439,0 0.671689,0.23212 0.22225,0.23213 0.22225,0.74084 v 1.72367 h -0.429683 v -1.70392 q 0,-0.62724 -0.538339,-0.62724 -0.385233,0 -0.553156,0.22225 -0.162983,0.22225 -0.162983,0.647 v 1.46191 H 46.37883 v -1.70392 q 0,-0.62724 -0.543278,-0.62724 -0.40005,0 -0.553155,0.24695 -0.153106,0.24694 -0.153106,0.7112 v 1.37301 H 44.694669 V 245.527 h 0.350661 l 0.06421,0.36053 h 0.0247 q 0.123472,-0.20743 0.330905,-0.30621 0.212373,-0.10371 0.449439,-0.10371 0.6223,0 0.809978,0.4445 h 0.02469 q 0.13335,-0.22719 0.360539,-0.33585 0.227189,-0.10865 0.48895,-0.10865 z"
         style="stroke-width:0.1"
         id="path904"
         inkscape:connector-curvature="0" />
      <path
         d="m 50.33758,245.47761 q 0.335845,0 0.582789,0.14816 0.246945,0.14817 0.375356,0.41981 0.13335,0.2667 0.13335,0.62724 v 0.26176 h -1.812572 q 0.0099,0.44944 0.227188,0.6865 0.22225,0.23213 0.617362,0.23213 0.251883,0 0.444499,-0.0444 0.197556,-0.0494 0.404989,-0.13829 v 0.3803 q -0.202494,0.0889 -0.40005,0.12841 -0.197555,0.0445 -0.469194,0.0445 -0.380294,0 -0.66675,-0.15311 -0.286456,-0.1531 -0.449439,-0.45437 -0.158044,-0.30128 -0.158044,-0.74578 0,-0.43462 0.143227,-0.74577 0.148167,-0.31115 0.409928,-0.47907 0.2667,-0.16792 0.617361,-0.16792 z m -0.0049,0.3556 q -0.31115,0 -0.493888,0.20249 -0.1778,0.19756 -0.212373,0.55316 h 1.348317 q -0.0049,-0.33585 -0.158045,-0.54328 -0.153105,-0.21237 -0.484011,-0.21237 z"
         style="stroke-width:0.1"
         id="path906"
         inkscape:connector-curvature="0" />
      <path
         d="m 52.987064,247.86803 q 0.09878,0 0.202494,-0.0148 0.103717,-0.0148 0.167922,-0.0395 v 0.33091 q -0.06914,0.0346 -0.197555,0.0543 -0.128411,0.0247 -0.246945,0.0247 -0.207433,0 -0.385233,-0.0692 -0.172861,-0.0741 -0.281517,-0.25188 -0.108655,-0.1778 -0.108655,-0.49883 v -1.54093 h -0.375356 v -0.20743 l 0.380295,-0.17286 0.172861,-0.56304 h 0.256822 v 0.60749 h 0.765528 v 0.33584 h -0.765528 v 1.53106 q 0,0.242 0.113594,0.36053 0.118534,0.1136 0.301273,0.1136 z"
         style="stroke-width:0.1"
         id="path908"
         inkscape:connector-curvature="0" />
      <path
         d="m 55.122284,245.47761 q 0.07408,0 0.158044,0.01 0.08396,0.005 0.153106,0.0198 l -0.05433,0.40005 q -0.06421,-0.0148 -0.143228,-0.0247 -0.07902,-0.01 -0.143227,-0.01 -0.202495,0 -0.380295,0.11359 -0.1778,0.10866 -0.286455,0.31115 -0.103717,0.19756 -0.103717,0.46426 v 1.41252 h -0.43462 V 245.527 h 0.3556 l 0.04939,0.48401 h 0.01975 q 0.123472,-0.21731 0.325967,-0.37536 0.207433,-0.15804 0.484011,-0.15804 z"
         style="stroke-width:0.1"
         id="path910"
         inkscape:connector-curvature="0" />
      <path
         d="m 56.145174,244.53428 q 0.09878,0 0.172861,0.0691 0.07902,0.0642 0.07902,0.20744 0,0.14322 -0.07902,0.21237 -0.07408,0.0642 -0.172861,0.0642 -0.108656,0 -0.182739,-0.0642 -0.07408,-0.0692 -0.07408,-0.21237 0,-0.14323 0.07408,-0.20744 0.07408,-0.0691 0.182739,-0.0691 z m 0.212372,0.99272 v 2.64724 H 55.922924 V 245.527 Z"
         style="stroke-width:0.1"
         id="path912"
         inkscape:connector-curvature="0" />
      <path
         d="m 58.919902,247.44328 q 0,0.38524 -0.286455,0.58279 -0.286456,0.19756 -0.770467,0.19756 -0.276578,0 -0.479072,-0.0445 -0.197556,-0.0445 -0.350661,-0.12347 v -0.39511 q 0.158044,0.079 0.380294,0.14816 0.227189,0.0642 0.459317,0.0642 0.330905,0 0.479072,-0.10372 0.148167,-0.10865 0.148167,-0.28645 0,-0.0988 -0.05433,-0.1778 -0.05433,-0.079 -0.197556,-0.15805 -0.138289,-0.079 -0.40005,-0.1778 -0.256822,-0.0988 -0.439561,-0.19755 -0.182739,-0.0988 -0.281517,-0.23707 -0.09878,-0.13829 -0.09878,-0.3556 0,-0.33585 0.271639,-0.51858 0.276577,-0.18274 0.721077,-0.18274 0.242006,0 0.449439,0.0494 0.212372,0.0494 0.395111,0.12841 l -0.148166,0.34572 q -0.167923,-0.0691 -0.350661,-0.11853 -0.182739,-0.0494 -0.375356,-0.0494 -0.2667,0 -0.409928,0.0889 -0.138289,0.084 -0.138289,0.23212 0,0.1136 0.06421,0.18768 0.06421,0.0741 0.212372,0.14817 0.153106,0.0741 0.404989,0.16792 0.251883,0.0938 0.429683,0.19262 0.1778,0.0988 0.271639,0.242 0.09384,0.13829 0.09384,0.35066 z"
         style="stroke-width:0.1"
         id="path914"
         inkscape:connector-curvature="0" />
      <path
         d="m 60.621428,248.22363 q -0.3556,0 -0.627239,-0.14323 -0.271639,-0.14323 -0.429684,-0.4445 -0.153105,-0.30127 -0.153105,-0.77047 0,-0.48895 0.158044,-0.79516 0.162984,-0.30621 0.4445,-0.44944 0.281517,-0.14322 0.637117,-0.14322 0.197555,0 0.385233,0.0445 0.192617,0.0395 0.31115,0.0988 l -0.13335,0.36054 q -0.118533,-0.0445 -0.276578,-0.084 -0.158044,-0.0395 -0.296333,-0.0395 -0.780344,0 -0.780344,1.0026 0,0.47907 0.187677,0.73589 0.192617,0.25188 0.567973,0.25188 0.212372,0 0.380294,-0.0445 0.167922,-0.0445 0.306211,-0.10865 v 0.38523 q -0.13335,0.0692 -0.296333,0.10372 -0.158045,0.0395 -0.385233,0.0395 z"
         style="stroke-width:0.1"
         id="path916"
         inkscape:connector-curvature="0" />
      <path
         d="m 62.367169,244.42068 v 1.10138 q 0,0.19755 -0.02469,0.37041 h 0.02963 q 0.128411,-0.20249 0.345722,-0.30621 0.22225,-0.10371 0.479072,-0.10371 0.479072,0 0.721078,0.23212 0.246944,0.22719 0.246944,0.7359 v 1.72367 h -0.429683 v -1.69404 q 0,-0.63712 -0.592667,-0.63712 -0.4445,0 -0.612422,0.25189 -0.162983,0.24694 -0.162983,0.7112 v 1.36807 h -0.434622 v -3.75356 z"
         style="stroke-width:0.1"
         id="path918"
         inkscape:connector-curvature="0" />
      <path
         d="m 66.003118,245.47761 q 0.335845,0 0.582789,0.14816 0.246944,0.14817 0.375356,0.41981 0.13335,0.2667 0.13335,0.62724 v 0.26176 H 65.28204 q 0.0099,0.44944 0.227189,0.6865 0.22225,0.23213 0.617361,0.23213 0.251884,0 0.4445,-0.0444 0.197556,-0.0494 0.404989,-0.13829 v 0.3803 q -0.202494,0.0889 -0.40005,0.12841 -0.197555,0.0445 -0.469194,0.0445 -0.380295,0 -0.66675,-0.15311 -0.286456,-0.1531 -0.449439,-0.45437 -0.158044,-0.30128 -0.158044,-0.74578 0,-0.43462 0.143227,-0.74577 0.148167,-0.31115 0.409928,-0.47907 0.2667,-0.16792 0.617361,-0.16792 z m -0.0049,0.3556 q -0.31115,0 -0.493889,0.20249 -0.1778,0.19756 -0.212372,0.55316 h 1.348317 q -0.0049,-0.33585 -0.158045,-0.54328 -0.153105,-0.21237 -0.484011,-0.21237 z"
         style="stroke-width:0.1"
         id="path920"
         inkscape:connector-curvature="0" />
      <path
         d="m 71.935804,246.37648 q 0,0.89394 -0.48895,1.34832 -0.484011,0.44944 -1.353256,0.44944 h -0.982839 v -3.52637 h 1.086556 q 0.528461,0 0.918633,0.19756 0.395111,0.19755 0.607483,0.58279 0.212373,0.38523 0.212373,0.94826 z m -0.469195,0.0148 q 0,-0.70626 -0.350661,-1.03223 -0.345722,-0.3309 -0.982839,-0.3309 h -0.57785 v 2.76578 h 0.479073 q 1.432277,0 1.432277,-1.40265 z"
         style="stroke-width:0.1"
         id="path922"
         inkscape:connector-curvature="0" />
      <path
         d="m 72.881447,244.53428 q 0.09878,0 0.172861,0.0691 0.07902,0.0642 0.07902,0.20744 0,0.14322 -0.07902,0.21237 -0.07408,0.0642 -0.172861,0.0642 -0.108656,0 -0.182739,-0.0642 -0.07408,-0.0692 -0.07408,-0.21237 0,-0.14323 0.07408,-0.20744 0.07408,-0.0691 0.182739,-0.0691 z m 0.212372,0.99272 v 2.64724 H 72.659197 V 245.527 Z"
         style="stroke-width:0.1"
         id="path924"
         inkscape:connector-curvature="0" />
      <path
         d="m 75.15241,245.86284 h -0.66675 v 2.3114 h -0.434622 v -2.3114 h -0.464256 v -0.20249 l 0.464256,-0.14817 v -0.15311 q 0,-0.51364 0.22225,-0.73589 0.227189,-0.22719 0.637117,-0.22719 0.153105,0 0.286455,0.0296 0.13335,0.0247 0.227189,0.0593 l -0.113594,0.34078 q -0.07902,-0.0247 -0.182739,-0.0494 -0.103717,-0.0247 -0.212373,-0.0247 -0.217311,0 -0.325966,0.14817 -0.103717,0.14322 -0.103717,0.45437 v 0.17287 h 0.66675 z"
         style="stroke-width:0.1"
         id="path926"
         inkscape:connector-curvature="0" />
      <path
         d="m 76.850153,245.86284 h -0.66675 v 2.3114 H 75.74878 v -2.3114 h -0.464255 v -0.20249 l 0.464255,-0.14817 v -0.15311 q 0,-0.51364 0.22225,-0.73589 0.227189,-0.22719 0.637117,-0.22719 0.153106,0 0.286456,0.0296 0.13335,0.0247 0.227188,0.0593 l -0.113594,0.34078 q -0.07902,-0.0247 -0.182739,-0.0494 -0.103717,-0.0247 -0.212372,-0.0247 -0.217311,0 -0.325967,0.14817 -0.103716,0.14322 -0.103716,0.45437 v 0.17287 h 0.66675 z"
         style="stroke-width:0.1"
         id="path928"
         inkscape:connector-curvature="0" />
      <path
         d="m 78.35034,245.47761 q 0.335844,0 0.582788,0.14816 0.246945,0.14817 0.375356,0.41981 0.13335,0.2667 0.13335,0.62724 v 0.26176 h -1.812572 q 0.0099,0.44944 0.227189,0.6865 0.22225,0.23213 0.617361,0.23213 0.251883,0 0.4445,-0.0444 0.197555,-0.0494 0.404989,-0.13829 v 0.3803 q -0.202495,0.0889 -0.40005,0.12841 -0.197556,0.0445 -0.469195,0.0445 -0.380294,0 -0.66675,-0.15311 -0.286455,-0.1531 -0.449439,-0.45437 -0.158044,-0.30128 -0.158044,-0.74578 0,-0.43462 0.143228,-0.74577 0.148166,-0.31115 0.409927,-0.47907 0.2667,-0.16792 0.617362,-0.16792 z m -0.0049,0.3556 q -0.31115,0 -0.493889,0.20249 -0.1778,0.19756 -0.212372,0.55316 h 1.348316 q -0.0049,-0.33585 -0.158044,-0.54328 -0.153106,-0.21237 -0.484011,-0.21237 z"
         style="stroke-width:0.1"
         id="path930"
         inkscape:connector-curvature="0" />
      <path
         d="m 81.350481,245.47761 q 0.07408,0 0.158044,0.01 0.08396,0.005 0.153106,0.0198 l -0.05433,0.40005 q -0.06421,-0.0148 -0.143228,-0.0247 -0.07902,-0.01 -0.143227,-0.01 -0.202495,0 -0.380295,0.11359 -0.1778,0.10866 -0.286455,0.31115 -0.103717,0.19756 -0.103717,0.46426 v 1.41252 h -0.43462 V 245.527 h 0.3556 l 0.04939,0.48401 h 0.01976 q 0.123473,-0.21731 0.325967,-0.37536 0.207433,-0.15804 0.484011,-0.15804 z"
         style="stroke-width:0.1"
         id="path932"
         inkscape:connector-curvature="0" />
      <path
         d="m 83.077009,245.47761 q 0.335844,0 0.582789,0.14816 0.246944,0.14817 0.375355,0.41981 0.13335,0.2667 0.13335,0.62724 v 0.26176 h -1.812572 q 0.0099,0.44944 0.227189,0.6865 0.22225,0.23213 0.617361,0.23213 0.251883,0 0.4445,-0.0444 0.197556,-0.0494 0.404989,-0.13829 v 0.3803 q -0.202495,0.0889 -0.40005,0.12841 -0.197556,0.0445 -0.469195,0.0445 -0.380294,0 -0.666749,-0.15311 -0.286456,-0.1531 -0.449439,-0.45437 -0.158045,-0.30128 -0.158045,-0.74578 0,-0.43462 0.143228,-0.74577 0.148167,-0.31115 0.409928,-0.47907 0.2667,-0.16792 0.617361,-0.16792 z m -0.0049,0.3556 q -0.31115,0 -0.493889,0.20249 -0.1778,0.19756 -0.212372,0.55316 h 1.348316 q -0.0049,-0.33585 -0.158044,-0.54328 -0.153106,-0.21237 -0.484011,-0.21237 z"
         style="stroke-width:0.1"
         id="path934"
         inkscape:connector-curvature="0" />
      <path
         d="m 86.116665,245.47761 q 0.474134,0 0.716139,0.23212 0.242006,0.23213 0.242006,0.74084 v 1.72367 h -0.429684 v -1.69404 q 0,-0.63712 -0.592666,-0.63712 -0.439561,0 -0.607484,0.24695 -0.167922,0.24694 -0.167922,0.7112 v 1.37301 H 84.842432 V 245.527 h 0.350661 l 0.06421,0.36053 h 0.02469 q 0.128411,-0.20743 0.3556,-0.30621 0.227189,-0.10371 0.479072,-0.10371 z"
         style="stroke-width:0.1"
         id="path936"
         inkscape:connector-curvature="0" />
      <path
         d="m 89.599505,248.17424 h -1.936044 v -0.28646 l 1.4224,-2.02494 H 87.747422 V 245.527 h 1.817511 v 0.32596 l -1.402644,1.98544 h 1.437216 z"
         style="stroke-width:0.1"
         id="path938"
         inkscape:connector-curvature="0" />
    </g>
    <g
       aria-label="Differenzmenge"
       style="font-style:normal;font-variant:normal;font-weight:normal;font-stretch:normal;font-size:4.93888855px;line-height:1.25;font-family:'Noto Sans';-inkscape-font-specification:'Noto Sans, Normal';font-variant-ligatures:normal;font-variant-caps:normal;font-variant-numeric:normal;font-feature-settings:normal;text-align:start;writing-mode:lr-tb;text-anchor:start;opacity:1;fill:#000000;fill-opacity:1;stroke:#000080;stroke-width:0.1;stroke-linecap:round;stroke-miterlimit:4;stroke-dasharray:none;stroke-dashoffset:0;stroke-opacity:1"
       id="text867">
      <path
         d="m 148.87174,246.94446 q 0,0.89394 -0.48895,1.34832 -0.48401,0.44944 -1.35325,0.44944 h -0.98284 v -3.52637 h 1.08655 q 0.52847,0 0.91864,0.19756 0.39511,0.19755 0.60748,0.58279 0.21237,0.38523 0.21237,0.94826 z m -0.46919,0.0148 q 0,-0.70626 -0.35066,-1.03223 -0.34572,-0.3309 -0.98284,-0.3309 h -0.57785 v 2.76577 h 0.47907 q 1.43228,0 1.43228,-1.40264 z"
         style="stroke-width:0.1"
         id="path869"
         inkscape:connector-curvature="0" />
      <path
         d="m 149.81739,245.10226 q 0.0988,0 0.17286,0.0691 0.079,0.0642 0.079,0.20743 0,0.14323 -0.079,0.21238 -0.0741,0.0642 -0.17286,0.0642 -0.10866,0 -0.18274,-0.0642 -0.0741,-0.0691 -0.0741,-0.21238 0,-0.14322 0.0741,-0.20743 0.0741,-0.0691 0.18274,-0.0691 z m 0.21237,0.99271 v 2.64725 h -0.43462 v -2.64725 z"
         style="stroke-width:0.1"
         id="path871"
         inkscape:connector-curvature="0" />
      <path
         d="m 152.08835,246.43082 h -0.66675 v 2.3114 h -0.43462 v -2.3114 h -0.46426 v -0.2025 l 0.46426,-0.14816 v -0.15311 q 0,-0.51364 0.22225,-0.73589 0.22719,-0.22719 0.63711,-0.22719 0.15311,0 0.28646,0.0296 0.13335,0.0247 0.22719,0.0593 l -0.1136,0.34078 q -0.079,-0.0247 -0.18274,-0.0494 -0.10371,-0.0247 -0.21237,-0.0247 -0.21731,0 -0.32596,0.14816 -0.10372,0.14323 -0.10372,0.45438 v 0.17286 h 0.66675 z"
         style="stroke-width:0.1"
         id="path873"
         inkscape:connector-curvature="0" />
      <path
         d="m 153.78609,246.43082 h -0.66675 v 2.3114 h -0.43462 v -2.3114 h -0.46426 v -0.2025 l 0.46426,-0.14816 v -0.15311 q 0,-0.51364 0.22225,-0.73589 0.22719,-0.22719 0.63712,-0.22719 0.1531,0 0.28645,0.0296 0.13335,0.0247 0.22719,0.0593 l -0.11359,0.34078 q -0.079,-0.0247 -0.18274,-0.0494 -0.10372,-0.0247 -0.21237,-0.0247 -0.21732,0 -0.32597,0.14816 -0.10372,0.14323 -0.10372,0.45438 v 0.17286 h 0.66675 z"
         style="stroke-width:0.1"
         id="path875"
         inkscape:connector-curvature="0" />
      <path
         d="m 155.28628,246.04558 q 0.33584,0 0.58279,0.14817 0.24694,0.14817 0.37535,0.41981 0.13335,0.2667 0.13335,0.62724 v 0.26176 h -1.81257 q 0.01,0.44944 0.22719,0.6865 0.22225,0.23213 0.61736,0.23213 0.25188,0 0.4445,-0.0444 0.19756,-0.0494 0.40499,-0.13829 v 0.3803 q -0.20249,0.0889 -0.40005,0.12841 -0.19756,0.0444 -0.46919,0.0444 -0.3803,0 -0.66675,-0.15311 -0.28646,-0.1531 -0.44944,-0.45438 -0.15805,-0.30127 -0.15805,-0.74577 0,-0.43462 0.14323,-0.74577 0.14817,-0.31115 0.40993,-0.47907 0.2667,-0.16793 0.61736,-0.16793 z m -0.005,0.3556 q -0.31115,0 -0.49389,0.2025 -0.1778,0.19755 -0.21237,0.55315 h 1.34832 q -0.005,-0.33584 -0.15805,-0.54327 -0.1531,-0.21238 -0.48401,-0.21238 z"
         style="stroke-width:0.1"
         id="path877"
         inkscape:connector-curvature="0" />
      <path
         d="m 158.28642,246.04558 q 0.0741,0 0.15805,0.01 0.084,0.005 0.1531,0.0198 l -0.0543,0.40005 q -0.0642,-0.0148 -0.14322,-0.0247 -0.079,-0.01 -0.14323,-0.01 -0.2025,0 -0.3803,0.11359 -0.1778,0.10866 -0.28645,0.31115 -0.10372,0.19756 -0.10372,0.46426 v 1.41252 h -0.43462 V 246.095 h 0.3556 l 0.0494,0.48401 h 0.0198 q 0.12347,-0.21731 0.32596,-0.37535 0.20743,-0.15805 0.48401,-0.15805 z"
         style="stroke-width:0.1"
         id="path879"
         inkscape:connector-curvature="0" />
      <path
         d="m 160.01295,246.04558 q 0.33584,0 0.58279,0.14817 0.24694,0.14817 0.37535,0.41981 0.13335,0.2667 0.13335,0.62724 v 0.26176 h -1.81257 q 0.01,0.44944 0.22719,0.6865 0.22225,0.23213 0.61736,0.23213 0.25189,0 0.4445,-0.0444 0.19756,-0.0494 0.40499,-0.13829 v 0.3803 q -0.20249,0.0889 -0.40005,0.12841 -0.19755,0.0444 -0.46919,0.0444 -0.3803,0 -0.66675,-0.15311 -0.28646,-0.1531 -0.44944,-0.45438 -0.15805,-0.30127 -0.15805,-0.74577 0,-0.43462 0.14323,-0.74577 0.14817,-0.31115 0.40993,-0.47907 0.2667,-0.16793 0.61736,-0.16793 z m -0.005,0.3556 q -0.31115,0 -0.49389,0.2025 -0.1778,0.19755 -0.21237,0.55315 h 1.34832 q -0.005,-0.33584 -0.15805,-0.54327 -0.1531,-0.21238 -0.48401,-0.21238 z"
         style="stroke-width:0.1"
         id="path881"
         inkscape:connector-curvature="0" />
      <path
         d="m 163.0526,246.04558 q 0.47414,0 0.71614,0.23213 0.24201,0.23213 0.24201,0.74084 v 1.72367 h -0.42968 v -1.69404 q 0,-0.63712 -0.59267,-0.63712 -0.43956,0 -0.60748,0.24695 -0.16793,0.24694 -0.16793,0.7112 v 1.37301 h -0.43462 v -2.64725 h 0.35066 l 0.0642,0.36054 h 0.0247 q 0.12841,-0.20743 0.3556,-0.30621 0.22719,-0.10372 0.47907,-0.10372 z"
         style="stroke-width:0.1"
         id="path883"
         inkscape:connector-curvature="0" />
      <path
         d="m 166.53545,248.74222 h -1.93605 v -0.28646 l 1.4224,-2.02494 h -1.33844 v -0.33585 h 1.81751 v 0.32597 l -1.40264,1.98543 h 1.43722 z"
         style="stroke-width:0.1"
         id="path885"
         inkscape:connector-curvature="0" />
      <path
         d="m 170.05541,246.04558 q 0.44944,0 0.67169,0.23213 0.22225,0.23213 0.22225,0.74084 v 1.72367 h -0.42969 v -1.70392 q 0,-0.62724 -0.53834,-0.62724 -0.38523,0 -0.55315,0.22225 -0.16299,0.22225 -0.16299,0.647 v 1.46191 h -0.42968 v -1.70392 q 0,-0.62724 -0.54328,-0.62724 -0.40005,0 -0.55315,0.24695 -0.15311,0.24694 -0.15311,0.7112 v 1.37301 h -0.43462 v -2.64725 h 0.35066 l 0.0642,0.36054 h 0.0247 q 0.12347,-0.20743 0.33091,-0.30621 0.21237,-0.10372 0.44944,-0.10372 0.6223,0 0.80997,0.4445 h 0.0247 q 0.13335,-0.22718 0.36054,-0.33584 0.22719,-0.10866 0.48895,-0.10866 z"
         style="stroke-width:0.1"
         id="path887"
         inkscape:connector-curvature="0" />
      <path
         d="m 172.79425,246.04558 q 0.33585,0 0.58279,0.14817 0.24695,0.14817 0.37536,0.41981 0.13335,0.2667 0.13335,0.62724 v 0.26176 h -1.81258 q 0.01,0.44944 0.22719,0.6865 0.22225,0.23213 0.61736,0.23213 0.25189,0 0.4445,-0.0444 0.19756,-0.0494 0.40499,-0.13829 v 0.3803 q -0.20249,0.0889 -0.40005,0.12841 -0.19755,0.0444 -0.46919,0.0444 -0.3803,0 -0.66675,-0.15311 -0.28646,-0.1531 -0.44944,-0.45438 -0.15804,-0.30127 -0.15804,-0.74577 0,-0.43462 0.14322,-0.74577 0.14817,-0.31115 0.40993,-0.47907 0.2667,-0.16793 0.61736,-0.16793 z m -0.005,0.3556 q -0.31115,0 -0.49389,0.2025 -0.1778,0.19755 -0.21237,0.55315 h 1.34832 q -0.005,-0.33584 -0.15805,-0.54327 -0.1531,-0.21238 -0.48401,-0.21238 z"
         style="stroke-width:0.1"
         id="path889"
         inkscape:connector-curvature="0" />
      <path
         d="m 175.83391,246.04558 q 0.47413,0 0.71614,0.23213 0.242,0.23213 0.242,0.74084 v 1.72367 h -0.42968 v -1.69404 q 0,-0.63712 -0.59267,-0.63712 -0.43956,0 -0.60748,0.24695 -0.16792,0.24694 -0.16792,0.7112 v 1.37301 h -0.43463 v -2.64725 h 0.35066 l 0.0642,0.36054 h 0.0247 q 0.12842,-0.20743 0.3556,-0.30621 0.22719,-0.10372 0.47908,-0.10372 z"
         style="stroke-width:0.1"
         id="path891"
         inkscape:connector-curvature="0" />
      <path
         d="m 178.54628,246.04558 q 0.26176,0 0.4692,0.0988 0.21237,0.0988 0.36054,0.30127 h 0.0247 l 0.0593,-0.35066 h 0.34572 v 2.6917 q 0,0.56797 -0.2914,0.85443 -0.28645,0.28645 -0.89393,0.28645 -0.58279,0 -0.95321,-0.16792 v -0.40005 q 0.39017,0.20743 0.9779,0.20743 0.34078,0 0.5334,-0.20249 0.19756,-0.19756 0.19756,-0.54328 v -0.10372 q 0,-0.0593 0.005,-0.16792 0.005,-0.11359 0.01,-0.15804 h -0.0197 q -0.2667,0.40005 -0.81986,0.40005 -0.51364,0 -0.80504,-0.36054 -0.28645,-0.36054 -0.28645,-1.00754 0,-0.63217 0.28645,-1.00259 0.2914,-0.37536 0.8001,-0.37536 z m 0.0593,0.36548 q -0.33091,0 -0.51365,0.2667 -0.18273,0.26176 -0.18273,0.75071 0,0.48895 0.1778,0.75071 0.1778,0.25683 0.52846,0.25683 0.40005,0 0.58279,-0.21238 0.18273,-0.21731 0.18273,-0.69638 v -0.10372 q 0,-0.53833 -0.18767,-0.7754 -0.18768,-0.23707 -0.58773,-0.23707 z"
         style="stroke-width:0.1"
         id="path893"
         inkscape:connector-curvature="0" />
      <path
         d="m 181.66882,246.04558 q 0.33584,0 0.58279,0.14817 0.24694,0.14817 0.37535,0.41981 0.13335,0.2667 0.13335,0.62724 v 0.26176 h -1.81257 q 0.01,0.44944 0.22719,0.6865 0.22225,0.23213 0.61736,0.23213 0.25188,0 0.4445,-0.0444 0.19755,-0.0494 0.40499,-0.13829 v 0.3803 q -0.2025,0.0889 -0.40005,0.12841 -0.19756,0.0444 -0.4692,0.0444 -0.38029,0 -0.66675,-0.15311 -0.28645,-0.1531 -0.44944,-0.45438 -0.15804,-0.30127 -0.15804,-0.74577 0,-0.43462 0.14323,-0.74577 0.14816,-0.31115 0.40993,-0.47907 0.2667,-0.16793 0.61736,-0.16793 z m -0.005,0.3556 q -0.31115,0 -0.49389,0.2025 -0.1778,0.19755 -0.21237,0.55315 h 1.34831 q -0.005,-0.33584 -0.15804,-0.54327 -0.15311,-0.21238 -0.48401,-0.21238 z"
         style="stroke-width:0.1"
         id="path895"
         inkscape:connector-curvature="0" />
    </g>
    <g
       aria-label="&amp;"
       transform="scale(1.0007349,0.99926564)"
       style="font-style:normal;font-variant:normal;font-weight:normal;font-stretch:normal;font-size:17.58703041px;line-height:1.25;font-family:'Noto Sans Mono';-inkscape-font-specification:'Noto Sans Mono, Normal';font-variant-ligatures:normal;font-variant-caps:normal;font-variant-numeric:normal;font-feature-settings:normal;text-align:start;writing-mode:lr-tb;text-anchor:start;opacity:1;fill:#000000;fill-opacity:1;stroke:#000080;stroke-width:0.1;stroke-linecap:round;stroke-miterlimit:4;stroke-dasharray:none;stroke-dashoffset:0;stroke-opacity:1"
       id="text924">
      <path
         d="m 60.688026,82.591405 q -1.565246,0 -2.409423,-0.932112 -0.844177,-0.932113 -0.844177,-2.339075 0,-0.896939 0.316566,-1.582833 0.316567,-0.685894 0.826591,-1.231092 0.52761,-0.545198 1.160744,-1.020048 -0.492437,-0.703481 -0.879352,-1.512485 -0.369328,-0.82659 -0.369328,-1.723529 0,-1.160744 0.703482,-1.864225 0.703481,-0.721068 1.934573,-0.721068 1.231092,0 1.934573,0.721068 0.703481,0.703481 0.703481,1.829051 0,0.77383 -0.316566,1.406963 -0.316567,0.615546 -0.826591,1.143157 -0.492436,0.510024 -1.037634,0.949699 l 2.462184,3.060144 q 0.334154,-0.615546 0.545198,-1.248679 0.228631,-0.650721 0.316566,-1.24868 h 1.459724 q -0.17587,1.002461 -0.527611,1.952161 -0.351741,0.932112 -0.844177,1.723529 l 1.969747,2.462184 h -1.881812 l -1.020048,-1.30144 q -0.685894,0.685894 -1.530072,1.090396 -0.844177,0.386914 -1.846638,0.386914 z m -0.756242,-10.306 q 0,0.597959 0.246218,1.24868 0.246219,0.633133 0.615546,1.160744 0.562785,-0.439676 1.055222,-1.055222 0.492437,-0.615546 0.492437,-1.42455 0,-0.633133 -0.334154,-0.984873 -0.334153,-0.351741 -0.879351,-0.351741 -0.545198,0 -0.879352,0.369328 -0.316566,0.369327 -0.316566,1.037634 z m -0.984874,6.946877 q 0,0.844178 0.510024,1.42455 0.510024,0.580372 1.406962,0.580372 0.685895,0 1.266267,-0.334154 0.597959,-0.35174 1.090396,-0.896938 L 60.54733,76.559054 q -0.633133,0.527611 -1.12557,1.160744 -0.47485,0.633133 -0.47485,1.512484 z"
         style="font-style:normal;font-variant:normal;font-weight:normal;font-stretch:normal;font-size:17.58703041px;font-family:'Noto Sans Mono';-inkscape-font-specification:'Noto Sans Mono, Normal';font-variant-ligatures:normal;font-variant-caps:normal;font-variant-numeric:normal;font-feature-settings:normal;text-align:start;writing-mode:lr-tb;text-anchor:start;stroke-width:0.1"
         id="path950"
         inkscape:connector-curvature="0" />
    </g>
    <g
       aria-label="|"
       transform="scale(1.0007349,0.99926564)"
       style="font-style:normal;font-variant:normal;font-weight:normal;font-stretch:normal;font-size:17.58703041px;line-height:1.25;font-family:'Noto Sans Mono';-inkscape-font-specification:'Noto Sans Mono, Normal';font-variant-ligatures:normal;font-variant-caps:normal;font-variant-numeric:normal;font-feature-settings:normal;text-align:start;writing-mode:lr-tb;text-anchor:start;opacity:1;fill:#000000;fill-opacity:1;stroke:#000080;stroke-width:0.1;stroke-linecap:round;stroke-miterlimit:4;stroke-dasharray:none;stroke-dashoffset:0;stroke-opacity:1"
       id="text928">
      <path
         d="M 163.5555,82.934137 V 65.347106 h 1.28385 v 17.587031 z"
         style="font-style:normal;font-variant:normal;font-weight:normal;font-stretch:normal;font-size:17.58703041px;font-family:'Noto Sans Mono';-inkscape-font-specification:'Noto Sans Mono, Normal';font-variant-ligatures:normal;font-variant-caps:normal;font-variant-numeric:normal;font-feature-settings:normal;text-align:start;writing-mode:lr-tb;text-anchor:start;stroke-width:0.1"
         id="path939"
         inkscape:connector-curvature="0" />
    </g>
    <g
       aria-label="^"
       transform="scale(1.0001542,0.99984584)"
       style="font-style:normal;font-variant:normal;font-weight:normal;font-stretch:normal;font-size:30.42995834px;line-height:1.25;font-family:'Noto Sans Mono';-inkscape-font-specification:'Noto Sans Mono, Normal';font-variant-ligatures:normal;font-variant-caps:normal;font-variant-numeric:normal;font-feature-settings:normal;text-align:start;writing-mode:lr-tb;text-anchor:start;opacity:1;fill:#000000;fill-opacity:1;stroke:#000080;stroke-width:0.1;stroke-linecap:round;stroke-miterlimit:4;stroke-dasharray:none;stroke-dashoffset:0;stroke-opacity:1"
       id="text932">
      <path
         d="m 54.521639,178.78417 6.512011,-13.75434 h 1.521498 l 7.18147,13.75434 h -2.373537 l -5.538252,-10.92436 -4.929653,10.92436 z"
         style="font-style:normal;font-variant:normal;font-weight:normal;font-stretch:normal;font-size:30.42995834px;font-family:'Noto Sans Mono';-inkscape-font-specification:'Noto Sans Mono, Normal';font-variant-ligatures:normal;font-variant-caps:normal;font-variant-numeric:normal;font-feature-settings:normal;text-align:start;writing-mode:lr-tb;text-anchor:start;stroke-width:0.1"
         id="path946"
         inkscape:connector-curvature="0" />
    </g>
    <g
       aria-label="-"
       transform="scale(1.0001542,0.99984583)"
       style="font-style:normal;font-variant:normal;font-weight:normal;font-stretch:normal;font-size:30.42995834px;line-height:1.25;font-family:'Noto Sans Mono';-inkscape-font-specification:'Noto Sans Mono, Normal';font-variant-ligatures:normal;font-variant-caps:normal;font-variant-numeric:normal;font-feature-settings:normal;text-align:start;writing-mode:lr-tb;text-anchor:start;opacity:1;fill:#000000;fill-opacity:1;stroke:#000080;stroke-width:0.1;stroke-linecap:round;stroke-miterlimit:4;stroke-dasharray:none;stroke-dashoffset:0;stroke-opacity:1"
       id="text936">
      <path
         d="m 173.18119,174.21234 v -2.4344 h 9.12899 v 2.4344 z"
         style="font-style:normal;font-variant:normal;font-weight:normal;font-stretch:normal;font-size:30.42995834px;font-family:'Noto Sans Mono';-inkscape-font-specification:'Noto Sans Mono, Normal';font-variant-ligatures:normal;font-variant-caps:normal;font-variant-numeric:normal;font-feature-settings:normal;text-align:start;writing-mode:lr-tb;text-anchor:start;stroke-width:0.1"
         id="path942"
         inkscape:connector-curvature="0" />
    </g>
  </g>
  <g
     inkscape:groupmode="layer"
     id="layer2"
     inkscape:label="elemente"
     sodipodi:insensitive="true"
     transform="translate(-19.569242,-65.149154)">
    <text
       xml:space="preserve"
       style="font-style:normal;font-variant:normal;font-weight:normal;font-stretch:normal;font-size:4.93888855px;line-height:1.25;font-family:'Noto Sans';-inkscape-font-specification:'Noto Sans, Normal';font-variant-ligatures:normal;font-variant-caps:normal;font-variant-numeric:normal;font-feature-settings:normal;text-align:start;writing-mode:lr-tb;text-anchor:start;opacity:1;fill:#000000;fill-opacity:1;stroke:none;stroke-width:0.1;stroke-linecap:round;stroke-miterlimit:4;stroke-dasharray:none;stroke-dashoffset:0;stroke-opacity:1"
       x="27.74453"
       y="110.355"
       id="text879"><tspan
         sodipodi:role="line"
         id="tspan877"
         x="27.74453"
         y="110.355"
         style="fill:#000000;stroke-width:0.1">10</tspan></text>
    <text
       xml:space="preserve"
       style="font-style:normal;font-variant:normal;font-weight:normal;font-stretch:normal;font-size:4.93888855px;line-height:1.25;font-family:'Noto Sans';-inkscape-font-specification:'Noto Sans, Normal';font-variant-ligatures:normal;font-variant-caps:normal;font-variant-numeric:normal;font-feature-settings:normal;text-align:start;writing-mode:lr-tb;text-anchor:start;opacity:1;fill:#000000;fill-opacity:1;stroke:none;stroke-width:0.1;stroke-linecap:round;stroke-miterlimit:4;stroke-dasharray:none;stroke-dashoffset:0;stroke-opacity:1"
       x="58.699169"
       y="115.39946"
       id="text887"><tspan
         sodipodi:role="line"
         id="tspan885"
         x="58.699169"
         y="115.39946"
         style="fill:#000000;stroke-width:0.1">20</tspan></text>
    <text
       id="text883"
       y="110.355"
       x="85.755814"
       style="font-style:normal;font-variant:normal;font-weight:normal;font-stretch:normal;font-size:4.93888855px;line-height:1.25;font-family:'Noto Sans';-inkscape-font-specification:'Noto Sans, Normal';font-variant-ligatures:normal;font-variant-caps:normal;font-variant-numeric:normal;font-feature-settings:normal;text-align:start;writing-mode:lr-tb;text-anchor:start;opacity:1;fill:#000000;fill-opacity:1;stroke:none;stroke-width:0.1;stroke-linecap:round;stroke-miterlimit:4;stroke-dasharray:none;stroke-dashoffset:0;stroke-opacity:1"
       xml:space="preserve"><tspan
         style="fill:#000000;stroke-width:0.1"
         y="110.355"
         x="85.755814"
         id="tspan881"
         sodipodi:role="line">30</tspan></text>
    <text
       id="text891"
       y="110.355"
       x="131.99034"
       style="font-style:normal;font-variant:normal;font-weight:normal;font-stretch:normal;font-size:4.93888855px;line-height:1.25;font-family:'Noto Sans';-inkscape-font-specification:'Noto Sans, Normal';font-variant-ligatures:normal;font-variant-caps:normal;font-variant-numeric:normal;font-feature-settings:normal;text-align:start;writing-mode:lr-tb;text-anchor:start;opacity:1;fill:#000000;fill-opacity:1;stroke:none;stroke-width:0.1;stroke-linecap:round;stroke-miterlimit:4;stroke-dasharray:none;stroke-dashoffset:0;stroke-opacity:1"
       xml:space="preserve"><tspan
         style="fill:#000000;stroke-width:0.1"
         y="110.355"
         x="131.99034"
         id="tspan889"
         sodipodi:role="line">10</tspan></text>
    <text
       id="text895"
       y="115.39946"
       x="161.88669"
       style="font-style:normal;font-variant:normal;font-weight:normal;font-stretch:normal;font-size:4.93888855px;line-height:1.25;font-family:'Noto Sans';-inkscape-font-specification:'Noto Sans, Normal';font-variant-ligatures:normal;font-variant-caps:normal;font-variant-numeric:normal;font-feature-settings:normal;text-align:start;writing-mode:lr-tb;text-anchor:start;opacity:1;fill:#000000;fill-opacity:1;stroke:none;stroke-width:0.1;stroke-linecap:round;stroke-miterlimit:4;stroke-dasharray:none;stroke-dashoffset:0;stroke-opacity:1"
       xml:space="preserve"><tspan
         style="fill:#000000;stroke-width:0.1"
         y="115.39946"
         x="161.88669"
         id="tspan893"
         sodipodi:role="line">20</tspan></text>
    <text
       xml:space="preserve"
       style="font-style:normal;font-variant:normal;font-weight:normal;font-stretch:normal;font-size:4.93888855px;line-height:1.25;font-family:'Noto Sans';-inkscape-font-specification:'Noto Sans, Normal';font-variant-ligatures:normal;font-variant-caps:normal;font-variant-numeric:normal;font-feature-settings:normal;text-align:start;writing-mode:lr-tb;text-anchor:start;opacity:1;fill:#000000;fill-opacity:1;stroke:none;stroke-width:0.1;stroke-linecap:round;stroke-miterlimit:4;stroke-dasharray:none;stroke-dashoffset:0;stroke-opacity:1"
       x="190.00168"
       y="110.355"
       id="text899"><tspan
         sodipodi:role="line"
         id="tspan897"
         x="190.00168"
         y="110.355"
         style="fill:#000000;stroke-width:0.1">30</tspan></text>
    <text
       id="text915"
       y="206.1174"
       x="28.279057"
       style="font-style:normal;font-variant:normal;font-weight:normal;font-stretch:normal;font-size:4.93888855px;line-height:1.25;font-family:'Noto Sans';-inkscape-font-specification:'Noto Sans, Normal';font-variant-ligatures:normal;font-variant-caps:normal;font-variant-numeric:normal;font-feature-settings:normal;text-align:start;writing-mode:lr-tb;text-anchor:start;opacity:1;fill:#000000;fill-opacity:1;stroke:none;stroke-width:0.1;stroke-linecap:round;stroke-miterlimit:4;stroke-dasharray:none;stroke-dashoffset:0;stroke-opacity:1"
       xml:space="preserve"><tspan
         style="fill:#000000;stroke-width:0.1"
         y="206.1174"
         x="28.279057"
         id="tspan913"
         sodipodi:role="line">10</tspan></text>
    <text
       xml:space="preserve"
       style="font-style:normal;font-variant:normal;font-weight:normal;font-stretch:normal;font-size:4.93888855px;line-height:1.25;font-family:'Noto Sans';-inkscape-font-specification:'Noto Sans, Normal';font-variant-ligatures:normal;font-variant-caps:normal;font-variant-numeric:normal;font-feature-settings:normal;text-align:start;writing-mode:lr-tb;text-anchor:start;opacity:1;fill:#000000;fill-opacity:1;stroke:none;stroke-width:0.1;stroke-linecap:round;stroke-miterlimit:4;stroke-dasharray:none;stroke-dashoffset:0;stroke-opacity:1"
       x="130.54401"
       y="204.3712"
       id="text903"><tspan
         sodipodi:role="line"
         id="tspan901"
         x="130.54401"
         y="204.3712"
         style="fill:#000000;stroke-width:0.1">10</tspan></text>
    <text
       id="text919"
       y="211.16188"
       x="59.233723"
       style="font-style:normal;font-variant:normal;font-weight:normal;font-stretch:normal;font-size:4.93888855px;line-height:1.25;font-family:'Noto Sans';-inkscape-font-specification:'Noto Sans, Normal';font-variant-ligatures:normal;font-variant-caps:normal;font-variant-numeric:normal;font-feature-settings:normal;text-align:start;writing-mode:lr-tb;text-anchor:start;opacity:1;fill:#000000;fill-opacity:1;stroke:none;stroke-width:0.1;stroke-linecap:round;stroke-miterlimit:4;stroke-dasharray:none;stroke-dashoffset:0;stroke-opacity:1"
       xml:space="preserve"><tspan
         style="fill:#000000;stroke-width:0.1"
         y="211.16188"
         x="59.233723"
         id="tspan917"
         sodipodi:role="line">20</tspan></text>
    <text
       xml:space="preserve"
       style="font-style:normal;font-variant:normal;font-weight:normal;font-stretch:normal;font-size:4.93888855px;line-height:1.25;font-family:'Noto Sans';-inkscape-font-specification:'Noto Sans, Normal';font-variant-ligatures:normal;font-variant-caps:normal;font-variant-numeric:normal;font-feature-settings:normal;text-align:start;writing-mode:lr-tb;text-anchor:start;opacity:1;fill:#000000;fill-opacity:1;stroke:none;stroke-width:0.1;stroke-linecap:round;stroke-miterlimit:4;stroke-dasharray:none;stroke-dashoffset:0;stroke-opacity:1"
       x="161.49867"
       y="209.41568"
       id="text907"><tspan
         sodipodi:role="line"
         id="tspan905"
         x="161.49867"
         y="209.41568"
         style="fill:#000000;stroke-width:0.1">20</tspan></text>
    <text
       xml:space="preserve"
       style="font-style:normal;font-variant:normal;font-weight:normal;font-stretch:normal;font-size:4.93888855px;line-height:1.25;font-family:'Noto Sans';-inkscape-font-specification:'Noto Sans, Normal';font-variant-ligatures:normal;font-variant-caps:normal;font-variant-numeric:normal;font-feature-settings:normal;text-align:start;writing-mode:lr-tb;text-anchor:start;opacity:1;fill:#000000;fill-opacity:1;stroke:none;stroke-width:0.1;stroke-linecap:round;stroke-miterlimit:4;stroke-dasharray:none;stroke-dashoffset:0;stroke-opacity:1"
       x="86.29039"
       y="206.1174"
       id="text923"><tspan
         sodipodi:role="line"
         id="tspan921"
         x="86.29039"
         y="206.1174"
         style="fill:#000000;stroke-width:0.1">30</tspan></text>
    <text
       id="text911"
       y="204.3712"
       x="188.55534"
       style="font-style:normal;font-variant:normal;font-weight:normal;font-stretch:normal;font-size:4.93888855px;line-height:1.25;font-family:'Noto Sans';-inkscape-font-specification:'Noto Sans, Normal';font-variant-ligatures:normal;font-variant-caps:normal;font-variant-numeric:normal;font-feature-settings:normal;text-align:start;writing-mode:lr-tb;text-anchor:start;opacity:1;fill:#000000;fill-opacity:1;stroke:none;stroke-width:0.1;stroke-linecap:round;stroke-miterlimit:4;stroke-dasharray:none;stroke-dashoffset:0;stroke-opacity:1"
       xml:space="preserve"><tspan
         style="fill:#000000;stroke-width:0.1"
         y="204.3712"
         x="188.55534"
         id="tspan909"
         sodipodi:role="line">30</tspan></text>
  </g>
</svg>
